<svg xmlns="http://www.w3.org/2000/svg" viewBox="0 0 7.1 11.3"><defs><style>.cls-1{isolation:isolate;}.cls-2{fill:#166787;fill-rule:evenodd;mix-blend-mode:multiply;}</style></defs><title>location-logo</title><g class="cls-1"><g id="Layer_1" data-name="Layer 1"><path class="cls-2" d="M.4,3.7A3.5,3.5,0,0,1,3.5.2,3.6,3.6,0,0,1,7.5,3,3.7,3.7,0,0,1,7,5.5,17.4,17.4,0,0,1,5.9,7.3a11.1,11.1,0,0,0-1.8,3.8v.3H3.9l-.3-1A12.4,12.4,0,0,0,1.7,6.8a8.6,8.6,0,0,1-1-1.6A3.7,3.7,0,0,1,.4,3.7Zm2.2,0A1.4,1.4,0,0,0,3.9,5.2,1.5,1.5,0,0,0,5.4,3.8,1.4,1.4,0,0,0,4,2.4,1.4,1.4,0,0,0,2.6,3.7Z" transform="translate(-0.4 -0.1)"/></g></g></svg>