<svg xmlns="http://www.w3.org/2000/svg" xmlns:xlink="http://www.w3.org/1999/xlink" viewBox="0 0 299.6 283"><defs><style>.cls-1{mask:url(#mask);}.cls-10,.cls-2{mix-blend-mode:multiply;}.cls-2{fill:url(#linear-gradient);}.cls-3{fill:none;}.cls-4{isolation:isolate;}.cls-5{clip-path:url(#clip-path);}.cls-6{mask:url(#mask-2);}.cls-7{stroke-miterlimit:10;fill:url(#linear-gradient-2);stroke:url(#linear-gradient-3);}.cls-8{opacity:0.3;}.cls-9{fill:url(#linear-gradient-4);}.cls-10{fill:#2ba9e0;opacity:0.7;}.cls-11{fill:url(#linear-gradient-5);}.cls-12{fill:url(#linear-gradient-6);}.cls-13{fill:url(#linear-gradient-7);}.cls-14{fill:url(#linear-gradient-8);}.cls-15{fill:url(#linear-gradient-9);}.cls-16{fill:url(#linear-gradient-10);}.cls-17{fill:url(#linear-gradient-11);}.cls-18{fill:url(#linear-gradient-12);}.cls-19{fill:url(#linear-gradient-13);}.cls-20{fill:url(#linear-gradient-14);}.cls-21{fill:#36529f;}.cls-22{fill:#344ea2;}.cls-23{fill:#fff;}.cls-24{fill:#ed2224;}.cls-25{filter:url(#luminosity-noclip-2);}.cls-26{filter:url(#luminosity-noclip);}</style><filter id="luminosity-noclip" x="-14.6" y="-8262.41" width="298.61" height="32766" filterUnits="userSpaceOnUse" color-interpolation-filters="sRGB"><feFlood flood-color="#fff" result="bg"/><feBlend in="SourceGraphic" in2="bg"/></filter><mask id="mask" x="-14.6" y="-8262.41" width="298.61" height="32766" maskUnits="userSpaceOnUse"><g class="cls-26"/></mask><linearGradient id="linear-gradient" x1="1067.66" y1="-1074.54" x2="1067.66" y2="-786.91" gradientTransform="translate(-932.9 1011)" gradientUnits="userSpaceOnUse"><stop offset="0" stop-color="#fff"/><stop offset="0.45" stop-color="#fdfdfd"/><stop offset="0.61" stop-color="#f6f6f6"/><stop offset="0.72" stop-color="#ebebeb"/><stop offset="0.82" stop-color="#dadada"/><stop offset="0.9" stop-color="#c4c4c4"/><stop offset="0.97" stop-color="#a9a9a9"/><stop offset="1" stop-color="#999"/></linearGradient><clipPath id="clip-path" transform="translate(15.1 59)"><rect class="cls-3" x="-0.2" y="0.3" width="252" height="144"/></clipPath><filter id="luminosity-noclip-2" x="-15.1" y="-58.97" width="299.61" height="283.02" filterUnits="userSpaceOnUse" color-interpolation-filters="sRGB"><feFlood flood-color="#fff" result="bg"/><feBlend in="SourceGraphic" in2="bg"/></filter><mask id="mask-2" x="0" y="0" width="299.61" height="283.02" maskUnits="userSpaceOnUse"><g class="cls-25"><g transform="translate(15.1 59)"><g class="cls-1"><rect class="cls-2" x="-14.6" y="-58.5" width="298.6" height="282.02"/></g></g></g></mask><linearGradient id="linear-gradient-2" x1="1067.66" y1="-1074.54" x2="1067.66" y2="-786.91" gradientTransform="translate(-917.9 1069.9)" gradientUnits="userSpaceOnUse"><stop offset="0" stop-color="#fff" stop-opacity="0"/><stop offset="0.12" stop-color="#d4eff5" stop-opacity="0.18"/><stop offset="0.32" stop-color="#90d5e5" stop-opacity="0.47"/><stop offset="0.51" stop-color="#59c1d9" stop-opacity="0.7"/><stop offset="0.68" stop-color="#32b2d0" stop-opacity="0.86"/><stop offset="0.82" stop-color="#1ba9ca" stop-opacity="0.96"/><stop offset="0.91" stop-color="#12a6c8"/></linearGradient><linearGradient id="linear-gradient-3" y1="141.51" x2="299.61" y2="141.51" gradientUnits="userSpaceOnUse"><stop offset="0" stop-color="#fff"/><stop offset="1"/></linearGradient><linearGradient id="linear-gradient-4" x1="-674.84" y1="56.95" x2="-674.84" y2="78.37" gradientTransform="translate(-458.2 250.8) rotate(180)" gradientUnits="userSpaceOnUse"><stop offset="0" stop-color="#2ba9e0"/><stop offset="0.25" stop-color="#28a3dc"/><stop offset="0.56" stop-color="#2094d1"/><stop offset="0.91" stop-color="#1379bf"/><stop offset="1" stop-color="#0f72ba"/></linearGradient><linearGradient id="linear-gradient-5" x1="-656.78" y1="46.43" x2="-656.78" y2="67.86" xlink:href="#linear-gradient-4"/><linearGradient id="linear-gradient-6" x1="-631.48" y1="10.38" x2="-631.48" y2="57.54" xlink:href="#linear-gradient-4"/><linearGradient id="linear-gradient-7" x1="-1041.56" y1="-883.75" x2="-1041.56" y2="-847.85" gradientTransform="matrix(-1, 0, 0, 1, -776.68, 1069.92)" xlink:href="#linear-gradient-4"/><linearGradient id="linear-gradient-8" x1="-1011.31" y1="-901.36" x2="-1011.31" y2="-865.46" gradientTransform="matrix(-1, 0, 0, 1, -776.68, 1069.92)" xlink:href="#linear-gradient-4"/><linearGradient id="linear-gradient-9" x1="-989.07" y1="-876.59" x2="-989.07" y2="-854.94" gradientTransform="matrix(-1, 0, 0, 1, -776.68, 1069.92)" xlink:href="#linear-gradient-4"/><linearGradient id="linear-gradient-10" x1="708.05" y1="159.92" x2="708.05" y2="186.7" gradientTransform="matrix(1, 0, 0, -1, -673.35, 250.79)" xlink:href="#linear-gradient-4"/><linearGradient id="linear-gradient-11" x1="690.29" y1="148.04" x2="690.29" y2="168.3" gradientTransform="matrix(1, 0, 0, -1, -673.35, 250.79)" xlink:href="#linear-gradient-4"/><linearGradient id="linear-gradient-12" x1="-794.77" y1="-1040.18" x2="-794.77" y2="-1013.39" gradientTransform="matrix(-1, 0, 0, 1, -776.68, 1069.92)" xlink:href="#linear-gradient-4"/><linearGradient id="linear-gradient-13" x1="-794.77" y1="-1013.89" x2="-794.77" y2="-987.11" gradientTransform="matrix(-1, 0, 0, 1, -776.68, 1069.92)" xlink:href="#linear-gradient-4"/><linearGradient id="linear-gradient-14" x1="-811.37" y1="-1021.69" x2="-811.37" y2="-1005.54" gradientTransform="matrix(-1, 0, 0, 1, -776.68, 1069.92)" xlink:href="#linear-gradient-4"/></defs><title>visiting-card-back</title><g class="cls-4"><g id="Layer_1" data-name="Layer 1"><g class="cls-5"><g class="cls-6"><rect class="cls-7" x="0.5" y="0.5" width="298.6" height="282.02"/></g><g class="cls-8"><polygon class="cls-9" points="204.6 183.1 210.6 172.6 222.6 172.6 228.6 183.1 222.6 193.6 210.6 193.6 204.6 183.1"/><polygon class="cls-10" points="204.6 183.1 210.6 172.6 222.6 172.6 210.6 193.6 204.6 183.1"/><polygon class="cls-10" points="204.6 183.1 222.6 193.6 210.6 193.6 204.6 183.1"/><polygon class="cls-10" points="210.6 172.6 222.6 172.6 216.6 183.1 210.6 172.6"/></g><g class="cls-8"><polygon class="cls-11" points="186.5 193.6 192.5 183.1 204.6 183.1 210.6 193.6 204.6 204.1 192.5 204.1 186.5 193.6"/><polygon class="cls-10" points="186.5 193.6 192.5 183.1 204.6 183.1 192.5 204.1 186.5 193.6"/><polygon class="cls-10" points="186.5 193.6 204.6 204.1 192.5 204.1 186.5 193.6"/><polygon class="cls-10" points="192.5 183.1 204.6 183.1 198.6 193.6 192.5 183.1"/></g><g class="cls-8"><polygon class="cls-12" points="146.8 216.7 160 193.6 186.5 193.6 199.8 216.7 186.5 239.9 160 239.9 146.8 216.7"/><polygon class="cls-10" points="146.8 216.7 160 193.6 186.5 193.6 160 239.9 146.8 216.7"/><polygon class="cls-10" points="146.8 216.7 186.5 239.9 160 239.9 146.8 216.7"/><polygon class="cls-10" points="160 193.6 186.5 193.6 173.3 216.7 160 193.6"/></g><polygon class="cls-13" points="244.7 204.2 254.8 221.8 275 221.8 285 204.2 275 186.6 254.8 186.6 244.7 204.2"/><polygon class="cls-10" points="244.7 204.2 254.8 221.8 275 221.8 254.8 186.6 244.7 204.2"/><polygon class="cls-10" points="244.7 204.2 275 186.6 254.8 186.6 244.7 204.2"/><polygon class="cls-10" points="254.8 221.8 275 221.8 264.9 204.2 254.8 221.8"/><polygon class="cls-14" points="214.5 186.6 224.6 204.2 244.7 204.2 254.8 186.6 244.7 169 224.6 169 214.5 186.6"/><polygon class="cls-10" points="214.5 186.6 224.6 204.2 244.7 204.2 224.6 169 214.5 186.6"/><polygon class="cls-10" points="214.5 186.6 244.7 169 224.6 169 214.5 186.6"/><polygon class="cls-10" points="224.6 204.2 244.7 204.2 234.6 186.6 224.6 204.2"/><polygon class="cls-15" points="200.2 204.2 206.3 214.8 218.5 214.8 224.6 204.2 218.5 193.6 206.3 193.6 200.2 204.2"/><polygon class="cls-10" points="200.2 204.2 206.3 214.8 218.5 214.8 206.3 193.6 200.2 204.2"/><polygon class="cls-10" points="200.2 204.2 218.5 193.6 206.3 193.6 200.2 204.2"/><polygon class="cls-10" points="206.3 214.8 218.5 214.8 212.4 204.2 206.3 214.8"/><g class="cls-8"><polygon class="cls-16" points="49.7 77.4 42.2 64.3 27.2 64.3 19.6 77.4 27.2 90.6 42.2 90.6 49.7 77.4"/><polygon class="cls-10" points="49.7 77.4 42.2 64.3 27.2 64.3 42.2 90.6 49.7 77.4"/><polygon class="cls-10" points="49.7 77.4 27.2 90.6 42.2 90.6 49.7 77.4"/><polygon class="cls-10" points="42.2 64.3 27.2 64.3 34.7 77.4 42.2 64.3"/></g><g class="cls-8"><polygon class="cls-17" points="28.3 92.6 22.6 82.6 11.3 82.6 5.6 92.6 11.3 102.5 22.6 102.5 28.3 92.6"/><polygon class="cls-10" points="28.3 92.6 22.6 82.6 11.3 82.6 22.6 102.5 28.3 92.6"/><polygon class="cls-10" points="28.3 92.6 11.3 102.5 22.6 102.5 28.3 92.6"/><polygon class="cls-10" points="22.6 82.6 11.3 82.6 16.9 92.6 22.6 82.6"/></g><polygon class="cls-18" points="3.1 43.2 10.6 56.3 25.6 56.3 33.1 43.2 25.6 30.1 10.6 30.1 3.1 43.2"/><polygon class="cls-10" points="3.1 43.2 10.6 56.3 25.6 56.3 10.6 30.1 3.1 43.2"/><polygon class="cls-10" points="3.1 43.2 25.6 30.1 10.6 30.1 3.1 43.2"/><polygon class="cls-10" points="10.6 56.3 25.6 56.3 18.1 43.2 10.6 56.3"/><polygon class="cls-19" points="3.1 69.5 10.6 82.6 25.6 82.6 33.1 69.5 25.6 56.3 10.6 56.3 3.1 69.5"/><polygon class="cls-10" points="3.1 69.5 10.6 82.6 25.6 82.6 10.6 56.3 3.1 69.5"/><polygon class="cls-10" points="3.1 69.5 25.6 56.3 10.6 56.3 3.1 69.5"/><polygon class="cls-10" points="10.6 82.6 25.6 82.6 18.1 69.5 10.6 82.6"/><polygon class="cls-20" points="25.6 56.3 30.2 64.3 39.2 64.3 43.8 56.3 39.2 48.4 30.2 48.4 25.6 56.3"/><polygon class="cls-10" points="25.6 56.3 30.2 64.3 39.2 64.3 30.2 48.4 25.6 56.3"/><polygon class="cls-10" points="25.6 56.3 39.2 48.4 30.2 48.4 25.6 56.3"/><polygon class="cls-10" points="30.2 64.3 39.2 64.3 34.7 56.3 30.2 64.3"/></g><path class="cls-21" d="M92.1,129.4l.9-3.6h.8l-1.4,4.7h-.6l-1.2-3.6-1.1,3.6h-.7l-1.4-4.7h.8l1,3.5,1.1-3.5h.6Z" transform="translate(15.1 59)"/><path class="cls-21" d="M98.8,129.4l1-3.6h.8l-1.4,4.7h-.7l-1.1-3.6-1.2,3.6h-.6l-1.4-4.7H95l.9,3.5,1.2-3.5h.6Z" transform="translate(15.1 59)"/><path class="cls-21" d="M105.6,129.4l.9-3.6h.8l-1.4,4.7h-.6l-1.2-3.6-1.1,3.6h-.7l-1.3-4.7h.8l.9,3.5,1.1-3.5h.7Z" transform="translate(15.1 59)"/><path class="cls-21" d="M107.6,130.1a.5.5,0,0,1,.2-.4h.7c.1.1.1.2.1.4a.4.4,0,0,1-.1.3l-.4.2-.3-.2Z" transform="translate(15.1 59)"/><path class="cls-21" d="M110.7,125.8v.6a1.5,1.5,0,0,1,1.4-.7c1,0,1.5.5,1.5,1.7v3.1h-.8v-3.1a1.5,1.5,0,0,0-.2-.8,1.3,1.3,0,0,0-1.4,0l-.5.5v3.4H110v-4.7Z" transform="translate(15.1 59)"/><path class="cls-21" d="M116.9,130.6a2.5,2.5,0,0,1-1.6-.6,2.5,2.5,0,0,1-.6-1.7v-.2a2.1,2.1,0,0,1,.3-1.2,1.8,1.8,0,0,1,.8-.9,1.7,1.7,0,0,1,1-.3,2,2,0,0,1,1.5.6,2.9,2.9,0,0,1,.5,1.7v.4h-3.2a1.5,1.5,0,0,0,.4,1.1,1.2,1.2,0,0,0,1,.4h.7l.5-.5.5.4A2,2,0,0,1,116.9,130.6Zm-.1-4.3a1.2,1.2,0,0,0-.8.4,1.5,1.5,0,0,0-.4,1H118a1.9,1.9,0,0,0-.4-.9A.8.8,0,0,0,116.8,126.3Z" transform="translate(15.1 59)"/><path class="cls-21" d="M123.9,129.4l.9-3.6h.9l-1.4,4.7h-.7l-1.1-3.6-1.2,3.6h-.6l-1.4-4.7h.8l.9,3.5,1.1-3.5h.7Z" transform="translate(15.1 59)"/><path class="cls-21" d="M129.4,130.5a4.3,4.3,0,0,1-.1-.5,1.8,1.8,0,0,1-1.4.6,1.5,1.5,0,0,1-1.1-.4,1.4,1.4,0,0,1-.5-1,1.4,1.4,0,0,1,.6-1.2,3.4,3.4,0,0,1,1.6-.4h.8v-.3a1,1,0,0,0-1-1l-.8.2a1.4,1.4,0,0,0-.2.6h-.9a.9.9,0,0,1,.3-.7,1.8,1.8,0,0,1,.7-.5,1.5,1.5,0,0,1,.9-.2,1.7,1.7,0,0,1,1.3.4,1.4,1.4,0,0,1,.5,1.1v2.2a2.5,2.5,0,0,0,.2,1h-.9Zm-1.3-.6.7-.2.5-.5v-1h-.7c-.9,0-1.4.3-1.4.9a.7.7,0,0,0,.2.6Z" transform="translate(15.1 59)"/><path class="cls-21" d="M132.9,129.3l1.1-3.5h.8l-1.9,5.4c-.3.8-.7,1.2-1.4,1.2h-.4v-.7h.8a1.6,1.6,0,0,0,.4-.7l.2-.4-1.7-4.7h.9Z" transform="translate(15.1 59)"/><path class="cls-21" d="M138.3,129.2a.6.6,0,0,0-.2-.5l-.9-.3-1-.3-.5-.4a1.4,1.4,0,0,1-.2-.6,1.2,1.2,0,0,1,.5-1,2,2,0,0,1,1.3-.4,1.8,1.8,0,0,1,1.3.4,1.4,1.4,0,0,1,.5,1.1h-.8a.6.6,0,0,0-.3-.6.9.9,0,0,0-.7-.3l-.7.2c-.2.2-.3.3-.3.5a.5.5,0,0,0,.3.5l.8.3,1,.3.6.4a1.5,1.5,0,0,1,.1.7,1,1,0,0,1-.5,1,1.7,1.7,0,0,1-1.3.4l-1-.2a1.3,1.3,0,0,1-.7-.6,1.1,1.1,0,0,1-.2-.8h.8a.9.9,0,0,0,.3.7,1.7,1.7,0,0,0,1.6,0A.6.6,0,0,0,138.3,129.2Z" transform="translate(15.1 59)"/><path class="cls-21" d="M141.3,126.9h.6a1.2,1.2,0,0,0,.9-.3,1,1,0,0,0,.3-.8,1,1,0,0,0-1.1-1.1,1,1,0,0,0-1.1,1.1h-.8a1.7,1.7,0,0,1,.5-1.3,2.4,2.4,0,0,1,1.4-.5,2,2,0,0,1,1.4.5,1.6,1.6,0,0,1,.6,1.3,1.1,1.1,0,0,1-.3.8,1.3,1.3,0,0,1-.7.6,1.6,1.6,0,0,1,.8.6,1.4,1.4,0,0,1,.3.9,1.7,1.7,0,0,1-.6,1.4,2.5,2.5,0,0,1-1.5.5,2,2,0,0,1-1.4-.5,1.5,1.5,0,0,1-.6-1.3h.8a.8.8,0,0,0,.4.8,1.1,1.1,0,0,0,.8.3,1.1,1.1,0,0,0,1.2-1.2,1.1,1.1,0,0,0-.3-.8,1.5,1.5,0,0,0-1-.3h-.6Z" transform="translate(15.1 59)"/><path class="cls-21" d="M145.3,130.1c0-.2,0-.3.1-.4h.8c0,.1.1.2.1.4v.3l-.4.2-.4-.2A.4.4,0,0,1,145.3,130.1Z" transform="translate(15.1 59)"/><path class="cls-21" d="M149.5,129.9l.8-.2a1.6,1.6,0,0,0,.4-.7h.7a1.3,1.3,0,0,1-.3.8l-.6.6-1,.2a1.8,1.8,0,0,1-1.5-.7,2.4,2.4,0,0,1-.6-1.7V128a2.7,2.7,0,0,1,.3-1.2,1.4,1.4,0,0,1,.7-.8,2,2,0,0,1,1.1-.3,1.6,1.6,0,0,1,1.9,1.7h-.7a2,2,0,0,0-.4-.8,1.1,1.1,0,0,0-.8-.3,1.1,1.1,0,0,0-.9.5,1.7,1.7,0,0,0-.4,1.3h0a1.7,1.7,0,0,0,.4,1.3A1,1,0,0,0,149.5,129.9Z" transform="translate(15.1 59)"/><path class="cls-21" d="M152.1,128.1a2.8,2.8,0,0,1,.3-1.3,2,2,0,0,1,.8-.8,2,2,0,0,1,1.1-.3,2.3,2.3,0,0,1,1.6.6,2.8,2.8,0,0,1,.6,1.8h0a2.4,2.4,0,0,1-.3,1.2,1.8,1.8,0,0,1-.8.9,2,2,0,0,1-1.1.3,1.9,1.9,0,0,1-1.6-.7,2.4,2.4,0,0,1-.6-1.8Zm.8.1a2.8,2.8,0,0,0,.4,1.3,1.3,1.3,0,0,0,1,.4,1.1,1.1,0,0,0,1-.5,2.3,2.3,0,0,0,.3-1.3,2.5,2.5,0,0,0-.3-1.3,1.3,1.3,0,0,0-2,0A2.6,2.6,0,0,0,152.9,128.2Z" transform="translate(15.1 59)"/><path class="cls-21" d="M158.2,125.8v.5a1.7,1.7,0,0,1,1.4-.6,1.3,1.3,0,0,1,1.3.7l.6-.5a1.5,1.5,0,0,1,.9-.2,1.4,1.4,0,0,1,1.6,1.6v3.2h-.8v-3.1a1.5,1.5,0,0,0-.2-.8c-.2-.2-.4-.2-.8-.2a.8.8,0,0,0-.7.2,1.2,1.2,0,0,0-.4.8v3.1h-.8v-3.1c0-.7-.3-1-1-1a1.1,1.1,0,0,0-1.1.6v3.5h-.8v-4.7Z" transform="translate(15.1 59)"/><path class="cls-22" d="M70.6,58h4.2l6.8,16.6h.1L85.1,58H89L84.4,80.2H80.1L73.3,63.8h-.1L69.9,80.2H66Z" transform="translate(15.1 59)"/><path class="cls-23" d="M86.4,82.7h-8L74.1,72.2,71.9,82.7h-9l5.6-27.2h8l4.4,10.6L83,55.5h9Zm-4.6-5h.5l.2-.6h-1ZM72.5,61.2h1l-.3-.7h-.6Z" transform="translate(15.1 59)"/><path class="cls-22" d="M103.4,75.2a7.2,7.2,0,0,1-2.8,4.2,9.4,9.4,0,0,1-4.9,1.2,8.6,8.6,0,0,1-2.8-.4,6.9,6.9,0,0,1-2.2-1.4,8.6,8.6,0,0,1-1.5-2.2,9.4,9.4,0,0,1-.5-3,11.3,11.3,0,0,1,.6-3.6A9.9,9.9,0,0,1,91,66.8a8.5,8.5,0,0,1,2.8-2.2,7.9,7.9,0,0,1,3.8-.9,8.7,8.7,0,0,1,3.5.7,6.3,6.3,0,0,1,2.1,1.8,8.2,8.2,0,0,1,1,2.4,22.9,22.9,0,0,1,.2,2.5v1.1c-.1.3-.1.6-.2.9H92.3a1.1,1.1,0,0,0-.1.5v.5a4,4,0,0,0,.9,2.7,3.7,3.7,0,0,0,2.9,1,4.9,4.9,0,0,0,2.5-.6,3.7,3.7,0,0,0,1.4-2Zm-2.5-4.4v-1a3.2,3.2,0,0,0-.9-2.4,3.3,3.3,0,0,0-2.5-.9,4.4,4.4,0,0,0-3.2,1.2,8.3,8.3,0,0,0-1.7,3.1Z" transform="translate(15.1 59)"/><path class="cls-23" d="M95.7,83.1a11.5,11.5,0,0,1-3.7-.6,8.9,8.9,0,0,1-3.1-1.9,11,11,0,0,1-2-3.1,9.7,9.7,0,0,1-.7-3.9,13.1,13.1,0,0,1,.7-4.4,12,12,0,0,1,2.2-4,11.8,11.8,0,0,1,3.6-2.9,11,11,0,0,1,4.9-1.1,11.2,11.2,0,0,1,4.7,1,9.2,9.2,0,0,1,2.9,2.6,8.1,8.1,0,0,1,1.4,3.3,16.9,16.9,0,0,1,.3,3v1.4c-.1.4-.1.7-.2,1l-.3,2.1h-.5V76a9.4,9.4,0,0,1-3.9,5.5A11.2,11.2,0,0,1,95.7,83.1Z" transform="translate(15.1 59)"/><path class="cls-22" d="M106.5,64.2h3.7l.9,11.5h.1l5.3-11.5h3.7l.7,11.5h.1l5.6-11.5h3.7l-8.4,16h-3.7l-.7-11.7h0l-5.4,11.7h-3.7Z" transform="translate(15.1 59)"/><polygon class="cls-23" points="138.6 141.7 131 141.7 130.7 137.6 128.8 141.7 121.3 141.7 118.8 120.6 127.6 120.6 128 125.1 130 120.6 137.7 120.6 138 125.1 140.1 120.6 149.5 120.6 138.6 141.7"/><path class="cls-22" d="M143.7,75.6c-.1.2-.1.5-.2.8a2,2,0,0,0-.1.7c0,.3,0,.4.2.6h1.8l-.6,2.5-1.3.3h-1.4a2,2,0,0,1-1.5-.5,2.6,2.6,0,0,1-.7-1.5,5.8,5.8,0,0,1-2.5,1.5,7.1,7.1,0,0,1-2.9.5,6.2,6.2,0,0,1-1.9-.2l-1.6-.8a5.3,5.3,0,0,1-1.1-1.4,4.8,4.8,0,0,1-.4-1.8,4.6,4.6,0,0,1,.6-2.5,3.5,3.5,0,0,1,1.5-1.7,6.8,6.8,0,0,1,2.1-1l2.6-.4h3.5a2.1,2.1,0,0,0,1.4-.7,2.5,2.5,0,0,0,.5-1.5,1.6,1.6,0,0,0-.8-1.5,4.1,4.1,0,0,0-1.9-.4,6.7,6.7,0,0,0-2.6.5,2.8,2.8,0,0,0-1.4,2h-3.4a6.3,6.3,0,0,1,1-2.5,6.1,6.1,0,0,1,1.6-1.6,9.2,9.2,0,0,1,2.3-.9,11.2,11.2,0,0,1,2.7-.3,14.4,14.4,0,0,1,3.4.4,5,5,0,0,1,1.8,1.1,2.1,2.1,0,0,1,.7,1.2,4.1,4.1,0,0,1,.1,1,12.9,12.9,0,0,1-.3,2.5Zm-10.6.2a1.6,1.6,0,0,0,.2,1l.7.6a1.6,1.6,0,0,0,.9.3h1a4.8,4.8,0,0,0,2.2-.4,4.1,4.1,0,0,0,1.4-1.2,4.6,4.6,0,0,0,.9-1.7,14.2,14.2,0,0,0,.5-2.2h0a3.1,3.1,0,0,1-1,.5l-1.2.2H137l-1.9.4a2.9,2.9,0,0,0-1.4.8A1.8,1.8,0,0,0,133.1,75.8Z" transform="translate(15.1 59)"/><path class="cls-23" d="M142.1,83.1a5.3,5.3,0,0,1-3-.9l-.8.3a12.6,12.6,0,0,1-3.8.6,10.9,10.9,0,0,1-2.6-.3,9,9,0,0,1-2.4-1.2,5.8,5.8,0,0,1-1.8-2.3,5.4,5.4,0,0,1-.7-2.9,7.6,7.6,0,0,1,.9-3.8l.7-1.1h0l.5-2.9a9.2,9.2,0,0,1,1.4-3.5,7.6,7.6,0,0,1,2.4-2.3,9.7,9.7,0,0,1,3.1-1.3,16.6,16.6,0,0,1,3.2-.3,12.5,12.5,0,0,1,4.2.6,6.9,6.9,0,0,1,2.8,1.6h0a4.7,4.7,0,0,1,1.3,2.5h0a10.4,10.4,0,0,1,.2,1.5,11.3,11.3,0,0,1-.4,3l-.9,4.6,2.2-.2-1.7,7.5-1.5.4L144,83Z" transform="translate(15.1 59)"/><path class="cls-22" d="M148,64.2h3.7l1.7,11.7h0l6.1-11.7h3.8l-9.2,16.5-1.2,2.2a13.3,13.3,0,0,1-1.4,1.9,5.9,5.9,0,0,1-1.8,1.3,6.2,6.2,0,0,1-2.5.5l-2.1-.3.6-2.9h1.4a3.2,3.2,0,0,0,1.4-.3,1.8,1.8,0,0,0,.9-1l1.4-2.6Z" transform="translate(15.1 59)"/><path class="cls-23" d="M147.2,89.1l-2.7-.3-2.4-.6,1.7-7.9,2.6.7h.8l1-1.8L145,61.7h8.9l.8,6.2,3.3-6.2h9.5L156.3,81.9c-.4.8-.9,1.5-1.2,2.2a14.6,14.6,0,0,1-1.7,2.4,7.9,7.9,0,0,1-6.2,2.6Z" transform="translate(15.1 59)"/><path class="cls-22" d="M173.6,68.8a1.8,1.8,0,0,0-.9-1.7,4.3,4.3,0,0,0-2.4-.6h-1l-.8.3a2.3,2.3,0,0,0-.7.7,2,2,0,0,0-.2.9,1.3,1.3,0,0,0,.4.9,2.4,2.4,0,0,0,1.1.6l1.6.5,1.6.6,1.4.6a3.6,3.6,0,0,1,1.2.8,9.4,9.4,0,0,1,.9,1.2,4.3,4.3,0,0,1,.3,1.7,4,4,0,0,1-.7,2.4,4.9,4.9,0,0,1-1.6,1.6,5.3,5.3,0,0,1-2.3.9,10.7,10.7,0,0,1-2.5.3,11.4,11.4,0,0,1-2.7-.2,6.7,6.7,0,0,1-2.1-.9,4.7,4.7,0,0,1-1.4-1.7,9,9,0,0,1-.6-2.7h3.4a3.7,3.7,0,0,0,.2,1.2,2.4,2.4,0,0,0,.8.9l1.1.5h2.6a4.5,4.5,0,0,0,1.1-.3,2.7,2.7,0,0,0,.8-.7,2,2,0,0,0,.3-1.1,1.4,1.4,0,0,0-.4-1.1l-1.2-.7-1.6-.5-1.7-.6a3.1,3.1,0,0,1-1.3-.6,5,5,0,0,1-1.2-.8,2.6,2.6,0,0,1-.7-1.1,4.1,4.1,0,0,1-.3-1.6,4,4,0,0,1,.6-2.2,3.6,3.6,0,0,1,1.5-1.5,6.7,6.7,0,0,1,2.1-.9,9.9,9.9,0,0,1,2.4-.3,8.8,8.8,0,0,1,2.4.3,4,4,0,0,1,2,.8,3.6,3.6,0,0,1,1.4,1.6,4.5,4.5,0,0,1,.4,2.4Z" transform="translate(15.1 59)"/><path class="cls-23" d="M169,83.1a15.8,15.8,0,0,1-3.2-.3,8.1,8.1,0,0,1-3-1.3,5.6,5.6,0,0,1-2.2-2.6,8.9,8.9,0,0,1-.9-3.8V72.6h3.2a5,5,0,0,1-.8-1.4,5.5,5.5,0,0,1-.5-2.6,6.8,6.8,0,0,1,.9-3.5,7.2,7.2,0,0,1,2.3-2.3,7.4,7.4,0,0,1,2.9-1.2,10.3,10.3,0,0,1,3-.4,13.6,13.6,0,0,1,2.9.3,7.9,7.9,0,0,1,3,1.2,6.7,6.7,0,0,1,2.1,2.6,6.8,6.8,0,0,1,.7,3.6v2.4h-2.2a10,10,0,0,1,.8,1.4,6,6,0,0,1,.6,2.7,7.6,7.6,0,0,1-1,3.7,6.9,6.9,0,0,1-2.4,2.4,10.7,10.7,0,0,1-3.1,1.3A16.3,16.3,0,0,1,169,83.1Z" transform="translate(15.1 59)"/><path class="cls-22" d="M182,64h1.2l.7-.2a1.2,1.2,0,0,0,.5-.5,1.5,1.5,0,0,0,.2-.8,1.2,1.2,0,0,0-.5-1,1.5,1.5,0,0,0-1-.3,1.9,1.9,0,0,0-1.3.5,3.1,3.1,0,0,0-.7,1.4h-1.4a2.8,2.8,0,0,1,.4-1.3,2.6,2.6,0,0,1,.7-1,4.1,4.1,0,0,1,1.1-.7l1.4-.2h1.1l.9.5c.2.2.5.4.6.7a2,2,0,0,1,.3,1.1,2.5,2.5,0,0,1-.5,1.5,2.6,2.6,0,0,1-1.3.8h0a1.6,1.6,0,0,1,.9.7,2.8,2.8,0,0,1,.3,1.3,3.2,3.2,0,0,1-.3,1.4,2.8,2.8,0,0,1-.9,1,2.3,2.3,0,0,1-1.2.6,3.9,3.9,0,0,1-1.5.2,3.1,3.1,0,0,1-2.2-.7,2.6,2.6,0,0,1-.8-2v-.6h1.5v.4a1.3,1.3,0,0,0,.5,1.2,1.7,1.7,0,0,0,1.3.4,2,2,0,0,0,1.4-.5,2,2,0,0,0,.6-1.5.8.8,0,0,0-.2-.7l-.4-.4-.5-.2h-1.1Z" transform="translate(15.1 59)"/><path class="cls-23" d="M181.7,72.3a5.8,5.8,0,0,1-3.9-1.3,5.3,5.3,0,0,1-1.6-3.9v-.5h0v-.3l.2-2.3h.5l.3-1.5a6,6,0,0,1,.6-1.9,5.9,5.9,0,0,1,1.3-1.8,5.2,5.2,0,0,1,1.9-1.1,5.9,5.9,0,0,1,2.3-.4l1.7.2a6.7,6.7,0,0,1,1.7.8,5.2,5.2,0,0,1,1.4,1.6,4.8,4.8,0,0,1-.3,5.1,4.1,4.1,0,0,1,.3,1.6,5.4,5.4,0,0,1-.6,2.5A7,7,0,0,1,186,71a6.8,6.8,0,0,1-2.1,1A7.8,7.8,0,0,1,181.7,72.3Z" transform="translate(15.1 59)"/><path class="cls-22" d="M70.6,58h4.2l6.8,16.6h.1L85.1,58H89L84.4,80.2H80.1L73.3,63.8h-.1L69.9,80.2H66Z" transform="translate(15.1 59)"/><path class="cls-23" d="M84.4,80.2H80.1L73.3,63.8h-.1L69.9,80.2H66L70.6,58h4.3l6.8,16.6h0L85.1,58H89Zm-4.3,0h4.3l4.5-22.1H85.1L81.7,74.6h-.1L74.8,58.1H70.6L66,80.2h3.9l3.3-16.5h.1Z" transform="translate(15.1 59)"/><path class="cls-24" d="M103.4,75.2a7.2,7.2,0,0,1-2.8,4.2,9.4,9.4,0,0,1-4.9,1.2,8.6,8.6,0,0,1-2.8-.4,6.9,6.9,0,0,1-2.2-1.4,8.6,8.6,0,0,1-1.5-2.2,9.4,9.4,0,0,1-.5-3,11.3,11.3,0,0,1,.6-3.6A9.9,9.9,0,0,1,91,66.8a8.5,8.5,0,0,1,2.8-2.2,7.9,7.9,0,0,1,3.8-.9,8.7,8.7,0,0,1,3.5.7,6.3,6.3,0,0,1,2.1,1.8,8.2,8.2,0,0,1,1,2.4,22.9,22.9,0,0,1,.2,2.5v1.1c-.1.3-.1.6-.2.9H92.3a1.1,1.1,0,0,0-.1.5v.5a4,4,0,0,0,.9,2.7,3.7,3.7,0,0,0,2.9,1,4.9,4.9,0,0,0,2.5-.6,3.7,3.7,0,0,0,1.4-2Zm-2.5-4.4v-1a3.2,3.2,0,0,0-.9-2.4,3.3,3.3,0,0,0-2.5-.9,4.4,4.4,0,0,0-3.2,1.2,8.3,8.3,0,0,0-1.7,3.1Z" transform="translate(15.1 59)"/><path class="cls-23" d="M95.7,80.7a8.2,8.2,0,0,1-2.8-.5,5.5,5.5,0,0,1-2.2-1.4,6.6,6.6,0,0,1-1.5-2.2,7.3,7.3,0,0,1-.5-3,11.3,11.3,0,0,1,.6-3.6A9,9,0,0,1,91,66.8a7.6,7.6,0,0,1,2.8-2.2,7.9,7.9,0,0,1,3.8-.9,7.3,7.3,0,0,1,3.5.7,6.3,6.3,0,0,1,2.1,1.8,8.2,8.2,0,0,1,1,2.4,11,11,0,0,1,.2,2.5v1.1a2.8,2.8,0,0,0-.1.9h-12a4.3,4.3,0,0,1-.1.5v.5a4,4,0,0,0,.9,2.7,3.7,3.7,0,0,0,2.9,1,4.9,4.9,0,0,0,2.5-.6,3.7,3.7,0,0,0,1.4-2h3.6a7.8,7.8,0,0,1-2.9,4.2A9.4,9.4,0,0,1,95.7,80.7Zm1.9-17a7.9,7.9,0,0,0-3.8.9A10.1,10.1,0,0,0,91,66.8,12.3,12.3,0,0,0,89.3,70a11.3,11.3,0,0,0-.6,3.6,9.4,9.4,0,0,0,.5,3,10.7,10.7,0,0,0,1.5,2.2,5.4,5.4,0,0,0,2.2,1.3,6.6,6.6,0,0,0,2.8.5,8.5,8.5,0,0,0,4.9-1.3,6.7,6.7,0,0,0,2.8-4H99.9a3,3,0,0,1-1.4,1.9,4.9,4.9,0,0,1-2.5.7,3.7,3.7,0,0,1-2.9-1.1,3.8,3.8,0,0,1-.9-2.7v-.5a1.1,1.1,0,0,1,.1-.5h11.9c.1-.3.1-.6.2-.9V71.1a11.3,11.3,0,0,0-.3-2.5,6.2,6.2,0,0,0-1-2.4,4.2,4.2,0,0,0-2-1.7A7.2,7.2,0,0,0,97.6,63.7Zm3.3,7.1H92.6a7.1,7.1,0,0,1,1.7-3.1,4.4,4.4,0,0,1,3.2-1.2,3.3,3.3,0,0,1,2.5.9,3.2,3.2,0,0,1,.9,2.4v1Zm-8.2,0h8.1a1.1,1.1,0,0,0,.1-.5v-.5a3.2,3.2,0,0,0-.9-2.4,3.3,3.3,0,0,0-2.5-.9,4,4,0,0,0-3.1,1.2A6.3,6.3,0,0,0,92.7,70.8Z" transform="translate(15.1 59)"/><path class="cls-22" d="M106.5,64.2h3.7l.9,11.5h.1l5.3-11.5h3.7l.7,11.5h.1l5.6-11.5h3.7l-8.4,16h-3.7l-.7-11.7h0l-5.4,11.7h-3.7Z" transform="translate(15.1 59)"/><path class="cls-23" d="M122,80.2h-3.8l-.7-11.7h0l-5.4,11.7h-3.7l-1.9-16.1h3.7l1,11.6h0l5.3-11.6h3.8l.6,11.5h.1l5.6-11.6h3.7Zm-3.8,0h3.7l8.4-16h-3.7L121,75.8h-.1l-.7-11.5h-3.7l-5.3,11.6h-.1l-.9-11.6h-3.6l1.9,16h3.6l5.4-11.7h0Z" transform="translate(15.1 59)"/><path class="cls-22" d="M143.7,75.6c-.1.2-.1.5-.2.8a2,2,0,0,0-.1.7c0,.3,0,.4.2.6h1.8l-.6,2.5-1.3.3h-1.4a2,2,0,0,1-1.5-.5,2.6,2.6,0,0,1-.7-1.5,5.8,5.8,0,0,1-2.5,1.5,7.1,7.1,0,0,1-2.9.5,6.2,6.2,0,0,1-1.9-.2l-1.6-.8a5.3,5.3,0,0,1-1.1-1.4,4.8,4.8,0,0,1-.4-1.8,4.6,4.6,0,0,1,.6-2.5,3.5,3.5,0,0,1,1.5-1.7,6.8,6.8,0,0,1,2.1-1l2.6-.4h3.5a2.1,2.1,0,0,0,1.4-.7,2.5,2.5,0,0,0,.5-1.5,1.6,1.6,0,0,0-.8-1.5,4.1,4.1,0,0,0-1.9-.4,6.7,6.7,0,0,0-2.6.5,2.8,2.8,0,0,0-1.4,2h-3.4a6.3,6.3,0,0,1,1-2.5,6.1,6.1,0,0,1,1.6-1.6,9.2,9.2,0,0,1,2.3-.9,11.2,11.2,0,0,1,2.7-.3,14.4,14.4,0,0,1,3.4.4,5,5,0,0,1,1.8,1.1,2.1,2.1,0,0,1,.7,1.2,4.1,4.1,0,0,1,.1,1,12.9,12.9,0,0,1-.3,2.5Zm-10.6.2a1.6,1.6,0,0,0,.2,1l.7.6a1.6,1.6,0,0,0,.9.3h1a4.8,4.8,0,0,0,2.2-.4,4.1,4.1,0,0,0,1.4-1.2,4.6,4.6,0,0,0,.9-1.7,14.2,14.2,0,0,0,.5-2.2h0a3.1,3.1,0,0,1-1,.5l-1.2.2H137l-1.9.4a2.9,2.9,0,0,0-1.4.8A1.8,1.8,0,0,0,133.1,75.8Z" transform="translate(15.1 59)"/><path class="cls-23" d="M142.1,80.7a2,2,0,0,1-1.5-.6,2.6,2.6,0,0,1-.7-1.5,7.2,7.2,0,0,1-2.5,1.6,9.3,9.3,0,0,1-2.9.5,6.3,6.3,0,0,1-1.9-.3l-1.6-.8a3.8,3.8,0,0,1-1.1-1.4,3.4,3.4,0,0,1-.4-1.8,4.6,4.6,0,0,1,.6-2.5,3.5,3.5,0,0,1,1.5-1.7,6.8,6.8,0,0,1,2.1-1l2.6-.4H138l1.8-.2a1.7,1.7,0,0,0,1.4-.6,2.4,2.4,0,0,0,.4-1.5,1.5,1.5,0,0,0-.8-1.5,4.8,4.8,0,0,0-1.8-.4,6.7,6.7,0,0,0-2.6.5,3,3,0,0,0-1.4,2h-3.4a8.1,8.1,0,0,1,.9-2.5,8.5,8.5,0,0,1,1.7-1.6,4.6,4.6,0,0,1,2.3-.9,11.2,11.2,0,0,1,2.7-.3,10.5,10.5,0,0,1,3.4.4,5,5,0,0,1,1.8,1,2.4,2.4,0,0,1,.7,1.3,4.1,4.1,0,0,1,.1,1,12.9,12.9,0,0,1-.3,2.5l-1.2,5.7a3.1,3.1,0,0,1-.2.8,2,2,0,0,0-.1.7,1.1,1.1,0,0,0,.2.6h1.2l.6-.2h0l-.6,2.5h0l-1.3.3Zm-2.2-2.1h0a2.6,2.6,0,0,0,.7,1.5,2.5,2.5,0,0,0,1.5.5h1.4l1.3-.3.6-2.5h-1.3l-.6-.2a1.1,1.1,0,0,1-.1-.6,2,2,0,0,1,.1-.7c.1-.3.1-.6.2-.9l1.2-5.6a12.9,12.9,0,0,0,.3-2.5c0-.2-.1-.6-.1-1a3.7,3.7,0,0,0-.7-1.2,3.9,3.9,0,0,0-1.8-1,10.2,10.2,0,0,0-3.4-.5,11.2,11.2,0,0,0-2.7.3,9.2,9.2,0,0,0-2.3.9,6.1,6.1,0,0,0-1.6,1.6,6.3,6.3,0,0,0-1,2.5h3.3a3.2,3.2,0,0,1,1.5-2,6.7,6.7,0,0,1,2.6-.5,4.1,4.1,0,0,1,1.9.4,1.6,1.6,0,0,1,.8,1.5,2.5,2.5,0,0,1-.5,1.5,2.1,2.1,0,0,1-1.4.7h-3.5a10.9,10.9,0,0,0-2.6.5,6.7,6.7,0,0,0-2.1.9,5,5,0,0,0-1.5,1.7,4.6,4.6,0,0,0-.6,2.5,3.7,3.7,0,0,0,1.5,3.1,3.5,3.5,0,0,0,1.6.8,6.3,6.3,0,0,0,1.9.3,7.1,7.1,0,0,0,2.9-.5,5.8,5.8,0,0,0,2.5-1.5Zm-4-.7h-1a2.5,2.5,0,0,1-.9-.4c-.3-.1-.5-.4-.7-.6a1.7,1.7,0,0,1-.3-1,1.6,1.6,0,0,1,.7-1.5,3.4,3.4,0,0,1,1.4-.9l1.9-.3h1.7l1.2-.2a2.1,2.1,0,0,0,1-.6h.1a14.1,14.1,0,0,1-.6,2.2,4.6,4.6,0,0,1-.9,1.7,3.3,3.3,0,0,1-1.4,1.2A4.8,4.8,0,0,1,135.9,77.9Zm5-5.6a3.1,3.1,0,0,1-1,.5l-1.2.2H137l-1.9.4a2.9,2.9,0,0,0-1.4.8,1.8,1.8,0,0,0-.6,1.5,3,3,0,0,0,.2,1l.7.6a3.2,3.2,0,0,0,.9.3h1a5.1,5.1,0,0,0,2.2-.4,5.3,5.3,0,0,0,1.4-1.2,5.6,5.6,0,0,0,.9-1.7,14.2,14.2,0,0,0,.5-2.2Z" transform="translate(15.1 59)"/><path class="cls-22" d="M148,64.2h3.7l1.7,11.7h0l6.1-11.7h3.8l-9.2,16.5-1.2,2.2a13.3,13.3,0,0,1-1.4,1.9,5.9,5.9,0,0,1-1.8,1.3,6.2,6.2,0,0,1-2.5.5l-2.1-.3.6-2.9h1.4a3.2,3.2,0,0,0,1.4-.3,1.8,1.8,0,0,0,.9-1l1.4-2.6Z" transform="translate(15.1 59)"/><path class="cls-23" d="M147.2,86.6l-2.1-.3h0l.6-2.9h1.4a3.2,3.2,0,0,0,1.4-.3,3,3,0,0,0,.9-1l1.4-2.6-2.9-15.6h3.8l1.7,11.7h0l6.1-11.8h3.8l-9.2,16.5-1.2,2.2a9.4,9.4,0,0,1-1.4,1.9,5.9,5.9,0,0,1-1.8,1.3A5.8,5.8,0,0,1,147.2,86.6Zm-2.1-.3,2.1.3a6.2,6.2,0,0,0,2.5-.5,5.9,5.9,0,0,0,1.8-1.3,13.3,13.3,0,0,0,1.4-1.9,16.4,16.4,0,0,1,1.2-2.2l9.1-16.5h-3.7l-6.1,11.7h-.1l-1.6-11.7H148l2.8,15.5-1.4,2.6a1.8,1.8,0,0,1-.9,1,3.2,3.2,0,0,1-1.4.3h-.7l-.7-.2Z" transform="translate(15.1 59)"/><path class="cls-22" d="M173.6,68.8a1.8,1.8,0,0,0-.9-1.7,4.3,4.3,0,0,0-2.4-.6h-1l-.8.3a2.3,2.3,0,0,0-.7.7,2,2,0,0,0-.2.9,1.3,1.3,0,0,0,.4.9,2.4,2.4,0,0,0,1.1.6l1.6.5,1.6.6,1.4.6a3.6,3.6,0,0,1,1.2.8,9.4,9.4,0,0,1,.9,1.2,4.3,4.3,0,0,1,.3,1.7,4,4,0,0,1-.7,2.4,4.9,4.9,0,0,1-1.6,1.6,5.3,5.3,0,0,1-2.3.9,10.7,10.7,0,0,1-2.5.3,11.4,11.4,0,0,1-2.7-.2,6.7,6.7,0,0,1-2.1-.9,4.7,4.7,0,0,1-1.4-1.7,9,9,0,0,1-.6-2.7h3.4a3.7,3.7,0,0,0,.2,1.2,2.4,2.4,0,0,0,.8.9l1.1.5h2.6a4.5,4.5,0,0,0,1.1-.3,2.7,2.7,0,0,0,.8-.7,2,2,0,0,0,.3-1.1,1.4,1.4,0,0,0-.4-1.1l-1.2-.7-1.6-.5-1.7-.6a3.1,3.1,0,0,1-1.3-.6,5,5,0,0,1-1.2-.8,2.6,2.6,0,0,1-.7-1.1,4.1,4.1,0,0,1-.3-1.6,4,4,0,0,1,.6-2.2,3.6,3.6,0,0,1,1.5-1.5,6.7,6.7,0,0,1,2.1-.9,9.9,9.9,0,0,1,2.4-.3,8.8,8.8,0,0,1,2.4.3,4,4,0,0,1,2,.8,3.6,3.6,0,0,1,1.4,1.6,4.5,4.5,0,0,1,.4,2.4Z" transform="translate(15.1 59)"/><path class="cls-23" d="M169,80.7a11.2,11.2,0,0,1-2.7-.3,6.7,6.7,0,0,1-2.1-.9,3.9,3.9,0,0,1-1.4-1.7,5.7,5.7,0,0,1-.6-2.7h3.4a4.3,4.3,0,0,0,.2,1.2,2.4,2.4,0,0,0,.8.9l1.1.5h2.6a4.5,4.5,0,0,0,1.1-.3,2.7,2.7,0,0,0,.8-.7,2,2,0,0,0,.3-1.1,1.4,1.4,0,0,0-.4-1.1l-1.2-.7-1.6-.5-1.7-.6-1.3-.5-1.2-.9a4.4,4.4,0,0,1-.8-1.1,7,7,0,0,1-.2-1.6,5.1,5.1,0,0,1,.5-2.2,4.3,4.3,0,0,1,1.5-1.5,8.5,8.5,0,0,1,2.2-.9,9.3,9.3,0,0,1,2.4-.3l2.4.2a6.7,6.7,0,0,1,2.1.9,4.2,4.2,0,0,1,1.3,1.6,4.5,4.5,0,0,1,.4,2.4h-3.3a2.4,2.4,0,0,0-.9-1.7,4.3,4.3,0,0,0-2.4-.6h-1l-.8.3a1.3,1.3,0,0,0-.6.7,1.2,1.2,0,0,0-.3.9,1.3,1.3,0,0,0,.4.9,3.9,3.9,0,0,0,1.1.6l1.6.5,1.6.6,1.4.6a3.6,3.6,0,0,1,1.2.8,4.7,4.7,0,0,1,.9,1.2,4.3,4.3,0,0,1,.3,1.7,4.8,4.8,0,0,1-.6,2.4,6.5,6.5,0,0,1-1.7,1.6,7,7,0,0,1-2.3,1A10.7,10.7,0,0,1,169,80.7Zm-6.7-5.6a6.8,6.8,0,0,0,.5,2.7,5.8,5.8,0,0,0,1.4,1.7,6.7,6.7,0,0,0,2.1.9l2.7.2a10.7,10.7,0,0,0,2.5-.3,6.9,6.9,0,0,0,2.3-.9,4.4,4.4,0,0,0,1.6-1.7,4.1,4.1,0,0,0,.6-2.3,4.7,4.7,0,0,0-.3-1.7,2.8,2.8,0,0,0-.8-1.1,2.7,2.7,0,0,0-1.2-.9l-1.4-.6-1.6-.5-1.6-.5a4.1,4.1,0,0,1-1.1-.7,1,1,0,0,1-.4-.9,3,3,0,0,1,.2-1l.7-.6.8-.3h1a4.3,4.3,0,0,1,2.4.6,1.8,1.8,0,0,1,.9,1.7h3.3a5.5,5.5,0,0,0-.4-2.4,4.4,4.4,0,0,0-1.4-1.6,4,4,0,0,0-2-.8,8.8,8.8,0,0,0-2.4-.3,9.9,9.9,0,0,0-2.4.3,6.7,6.7,0,0,0-2.1.9,3.6,3.6,0,0,0-1.5,1.5,4,4,0,0,0-.6,2.2,3.9,3.9,0,0,0,1,2.7l1.2.8,1.3.6,1.7.6,1.6.5a3.5,3.5,0,0,1,1.2.7,1.4,1.4,0,0,1,.4,1.1,2,2,0,0,1-.3,1.1,2.7,2.7,0,0,1-.8.7l-1.1.4h-1.2l-1.4-.2-1.1-.5a2,2,0,0,1-.8-.8,2.7,2.7,0,0,1-.2-1.3Z" transform="translate(15.1 59)"/><path class="cls-22" d="M182,64h1.2l.7-.2a1.2,1.2,0,0,0,.5-.5,1.5,1.5,0,0,0,.2-.8,1.2,1.2,0,0,0-.5-1,1.5,1.5,0,0,0-1-.3,1.9,1.9,0,0,0-1.3.5,3.1,3.1,0,0,0-.7,1.4h-1.4a2.8,2.8,0,0,1,.4-1.3,2.6,2.6,0,0,1,.7-1,4.1,4.1,0,0,1,1.1-.7l1.4-.2h1.1l.9.5c.2.2.5.4.6.7a2,2,0,0,1,.3,1.1,2.5,2.5,0,0,1-.5,1.5,2.6,2.6,0,0,1-1.3.8h0a1.6,1.6,0,0,1,.9.7,2.8,2.8,0,0,1,.3,1.3,3.2,3.2,0,0,1-.3,1.4,2.8,2.8,0,0,1-.9,1,2.3,2.3,0,0,1-1.2.6,3.9,3.9,0,0,1-1.5.2,3.1,3.1,0,0,1-2.2-.7,2.6,2.6,0,0,1-.8-2v-.6h1.5v.4a1.3,1.3,0,0,0,.5,1.2,1.7,1.7,0,0,0,1.3.4,2,2,0,0,0,1.4-.5,2,2,0,0,0,.6-1.5.8.8,0,0,0-.2-.7l-.4-.4-.5-.2h-1.1Z" transform="translate(15.1 59)"/><path class="cls-23" d="M181.7,69.8a3.1,3.1,0,0,1-2.2-.7,2.6,2.6,0,0,1-.8-2v-.6h1.5v.4a1.7,1.7,0,0,0,.5,1.2,1.7,1.7,0,0,0,1.3.4,2,2,0,0,0,1.4-.5,2,2,0,0,0,.6-1.5,1.4,1.4,0,0,0-.2-.7l-.4-.4-.6-.2h-1L182,64h1.2l.7-.2a1.2,1.2,0,0,0,.5-.5,1.5,1.5,0,0,0,.2-.8,1.4,1.4,0,0,0-.5-1,1.5,1.5,0,0,0-1-.3,1.9,1.9,0,0,0-1.3.5,3,3,0,0,0-.6,1.4h-1.6a4.3,4.3,0,0,1,.5-1.2,2.6,2.6,0,0,1,.7-1.1l1.1-.6,1.4-.2h1.1l.9.5c.2.2.5.4.6.7a2,2,0,0,1,.3,1.1,2.5,2.5,0,0,1-.5,1.5,2.6,2.6,0,0,1-1.3.8h0a2.4,2.4,0,0,1,.9.8,2.8,2.8,0,0,1,.3,1.3,3.2,3.2,0,0,1-.3,1.4,2.8,2.8,0,0,1-.9,1,2.3,2.3,0,0,1-1.2.6A3.9,3.9,0,0,1,181.7,69.8Zm-3-3.3v.6a2.8,2.8,0,0,0,.8,2,3.2,3.2,0,0,0,2.2.7l1.5-.2a2.7,2.7,0,0,0,1.2-.6,4.3,4.3,0,0,0,.9-1,3.2,3.2,0,0,0,.3-1.4,2.8,2.8,0,0,0-.3-1.3,1.6,1.6,0,0,0-.9-.7h0a2,2,0,0,0,1.2-.8,2.7,2.7,0,0,0,.3-2.6l-.6-.7a1.8,1.8,0,0,0-.9-.4l-1.1-.2-1.4.2a4.1,4.1,0,0,0-1.1.7,2.6,2.6,0,0,0-.7,1,5.6,5.6,0,0,0-.4,1.2h1.4a3.3,3.3,0,0,1,.7-1.3,1.9,1.9,0,0,1,1.3-.5,2,2,0,0,1,1.1.3,1.2,1.2,0,0,1,.4,1,1.5,1.5,0,0,1-.2.8.8.8,0,0,1-.5.5l-.7.2H182l-.2,1.1h1.1l.5.2a1,1,0,0,1,.5.4,1.5,1.5,0,0,1,.1.7,2.5,2.5,0,0,1-.5,1.5,2,2,0,0,1-1.5.5,2.1,2.1,0,0,1-1.4-.4,1.6,1.6,0,0,1-.4-1.2v-.4Z" transform="translate(15.1 59)"/></g></g></svg>