<svg xmlns="http://www.w3.org/2000/svg" xmlns:xlink="http://www.w3.org/1999/xlink" viewBox="0 0 296.6 283"><defs><style>.cls-1{mask:url(#mask);}.cls-2,.cls-24{mix-blend-mode:multiply;}.cls-2{fill:url(#linear-gradient);}.cls-3{fill:none;}.cls-4{isolation:isolate;}.cls-5{fill:#344ea2;}.cls-6{fill:#fff;}.cls-7{fill:#ed2224;}.cls-8{fill:#010101;}.cls-9{fill:#2c8ecd;}.cls-10{fill:#d02629;}.cls-11{fill:#a11f61;}.cls-12{fill:#188f46;}.cls-13{fill:#e6aa32;}.cls-14{fill:#0795cb;}.cls-15{fill:#d62a28;}.cls-16{fill:#009a4b;}.cls-17{fill:#eb9d26;}.cls-18{fill:#281611;}.cls-19{clip-path:url(#clip-path);}.cls-20{mask:url(#mask-2);}.cls-21{stroke-miterlimit:10;fill:url(#linear-gradient-2);stroke:url(#linear-gradient-3);}.cls-22{opacity:0.3;}.cls-23{fill:url(#linear-gradient-4);}.cls-24{fill:#2ba9e0;opacity:0.7;}.cls-25{fill:url(#linear-gradient-5);}.cls-26{fill:url(#linear-gradient-6);}.cls-27{fill:url(#linear-gradient-7);}.cls-28{fill:url(#linear-gradient-8);}.cls-29{fill:url(#linear-gradient-9);}.cls-30{fill:url(#linear-gradient-10);}.cls-31{fill:url(#linear-gradient-11);}.cls-32{fill:url(#linear-gradient-12);}.cls-33{fill:url(#linear-gradient-13);}.cls-34{fill:url(#linear-gradient-14);}.cls-35{filter:url(#luminosity-noclip-2);}.cls-36{filter:url(#luminosity-noclip);}</style><filter id="luminosity-noclip" x="0.43" y="-8262.41" width="283.78" height="32766" filterUnits="userSpaceOnUse" color-interpolation-filters="sRGB"><feFlood flood-color="#fff" result="bg"/><feBlend in="SourceGraphic" in2="bg"/></filter><mask id="mask" x="0.43" y="-8262.41" width="283.78" height="32766" maskUnits="userSpaceOnUse"><g class="cls-36"/></mask><linearGradient id="linear-gradient" x1="1075.27" y1="-1074.85" x2="1075.27" y2="-787.22" gradientTransform="translate(-932.9 1011)" gradientUnits="userSpaceOnUse"><stop offset="0" stop-color="#fff"/><stop offset="0.45" stop-color="#fdfdfd"/><stop offset="0.61" stop-color="#f6f6f6"/><stop offset="0.72" stop-color="#ebebeb"/><stop offset="0.82" stop-color="#dadada"/><stop offset="0.9" stop-color="#c4c4c4"/><stop offset="0.97" stop-color="#a9a9a9"/><stop offset="1" stop-color="#999"/></linearGradient><clipPath id="clip-path" transform="translate(11.9 59.3)"><rect class="cls-3" width="252" height="144"/></clipPath><filter id="luminosity-noclip-2" x="-0.07" y="-59.28" width="284.78" height="283.02" filterUnits="userSpaceOnUse" color-interpolation-filters="sRGB"><feFlood flood-color="#fff" result="bg"/><feBlend in="SourceGraphic" in2="bg"/></filter><mask id="mask-2" x="11.79" y="0" width="284.78" height="283.02" maskUnits="userSpaceOnUse"><g class="cls-35"><g transform="translate(11.9 59.3)"><g class="cls-1"><rect class="cls-2" x="0.4" y="-58.8" width="283.8" height="282.02"/></g></g></g></mask><linearGradient id="linear-gradient-2" x1="1075.27" y1="-1074.85" x2="1075.27" y2="-787.22" gradientTransform="translate(-921.1 1070.2)" gradientUnits="userSpaceOnUse"><stop offset="0" stop-color="#fff" stop-opacity="0"/><stop offset="0.01" stop-color="#fcfefe" stop-opacity="0.01"/><stop offset="1" stop-color="#12a6c8"/></linearGradient><linearGradient id="linear-gradient-3" x1="11.79" y1="141.51" x2="296.56" y2="141.51" gradientUnits="userSpaceOnUse"><stop offset="0" stop-color="#fff"/><stop offset="1"/></linearGradient><linearGradient id="linear-gradient-4" x1="-675.03" y1="57.25" x2="-675.03" y2="78.68" gradientTransform="translate(-461.5 251.1) rotate(180)" gradientUnits="userSpaceOnUse"><stop offset="0" stop-color="#2ba9e0"/><stop offset="0.25" stop-color="#28a3dc"/><stop offset="0.56" stop-color="#2094d1"/><stop offset="0.91" stop-color="#1379bf"/><stop offset="1" stop-color="#0f72ba"/></linearGradient><linearGradient id="linear-gradient-5" x1="-656.98" y1="46.74" x2="-656.98" y2="68.17" xlink:href="#linear-gradient-4"/><linearGradient id="linear-gradient-6" x1="-631.68" y1="10.68" x2="-631.68" y2="57.85" xlink:href="#linear-gradient-4"/><linearGradient id="linear-gradient-7" x1="-1041.75" y1="-884.06" x2="-1041.75" y2="-848.16" gradientTransform="matrix(-1, 0, 0, 1, -779.92, 1070.23)" xlink:href="#linear-gradient-4"/><linearGradient id="linear-gradient-8" x1="-1011.51" y1="-901.67" x2="-1011.51" y2="-865.77" gradientTransform="matrix(-1, 0, 0, 1, -779.92, 1070.23)" xlink:href="#linear-gradient-4"/><linearGradient id="linear-gradient-9" x1="-989.26" y1="-876.9" x2="-989.26" y2="-855.25" gradientTransform="matrix(-1, 0, 0, 1, -779.92, 1070.23)" xlink:href="#linear-gradient-4"/><linearGradient id="linear-gradient-10" x1="708.24" y1="160.22" x2="708.24" y2="187.01" gradientTransform="matrix(1, 0, 0, -1, -676.6, 251.09)" xlink:href="#linear-gradient-4"/><linearGradient id="linear-gradient-11" x1="690.49" y1="148.35" x2="690.49" y2="168.61" gradientTransform="matrix(1, 0, 0, -1, -676.6, 251.09)" xlink:href="#linear-gradient-4"/><linearGradient id="linear-gradient-12" x1="-794.97" y1="-1040.48" x2="-794.97" y2="-1013.7" gradientTransform="matrix(-1, 0, 0, 1, -779.92, 1070.23)" xlink:href="#linear-gradient-4"/><linearGradient id="linear-gradient-13" x1="-794.97" y1="-1014.2" x2="-794.97" y2="-987.41" gradientTransform="matrix(-1, 0, 0, 1, -779.92, 1070.23)" xlink:href="#linear-gradient-4"/><linearGradient id="linear-gradient-14" x1="-811.57" y1="-1022" x2="-811.57" y2="-1005.85" gradientTransform="matrix(-1, 0, 0, 1, -779.92, 1070.23)" xlink:href="#linear-gradient-4"/></defs><title>Ibrahim Khalil</title><g class="cls-4"><g id="Layer_1" data-name="Layer 1"><path class="cls-5" d="M24.4,11h2.1l3.4,8.2h0L31.6,11h1.9L31.2,22H29.1l-3.4-8.2h0L24,22H22.1Z" transform="translate(11.9 59.3)"/><path class="cls-6" d="M32.2,23.2H28.3L26.1,18l-1,5.2H20.6L23.4,9.8h3.9L29.5,15l1.1-5.2H35Zm-2.3-2.5h.3v-.3h-.5Zm-4.6-8.1h.5v-.4h-.3Z" transform="translate(11.9 59.3)"/><path class="cls-5" d="M40.7,19.5a4.6,4.6,0,0,1-1.4,2.1,4.9,4.9,0,0,1-2.5.6,3.5,3.5,0,0,1-1.4-.3,2.4,2.4,0,0,1-1.1-.6,4.1,4.1,0,0,1-.7-1.1,3.6,3.6,0,0,1-.2-1.5,11,11,0,0,1,.2-1.8,3.8,3.8,0,0,1,.9-1.5,4.1,4.1,0,0,1,1.4-1.2,5.3,5.3,0,0,1,1.9-.4,3.1,3.1,0,0,1,1.7.4,2.2,2.2,0,0,1,1,.9,2.2,2.2,0,0,1,.5,1.1,6.2,6.2,0,0,1,.1,1.3v1h-6V19a1.9,1.9,0,0,0,.5,1.3,1.8,1.8,0,0,0,1.4.5,2.1,2.1,0,0,0,1.2-.3,1.4,1.4,0,0,0,.7-1Zm-1.3-2.2v-.5a1.8,1.8,0,0,0-.4-1.1,1.5,1.5,0,0,0-1.3-.5,1.9,1.9,0,0,0-1.5.6,3.8,3.8,0,0,0-.9,1.5Z" transform="translate(11.9 59.3)"/><path class="cls-6" d="M36.8,23.4a5.7,5.7,0,0,1-1.8-.3,3.1,3.1,0,0,1-1.5-1,3.1,3.1,0,0,1-1-1.5,3.8,3.8,0,0,1-.4-1.9,5.7,5.7,0,0,1,.4-2.2,5.7,5.7,0,0,1,1-1.9,6.5,6.5,0,0,1,1.8-1.5,6.6,6.6,0,0,1,2.5-.5,4.1,4.1,0,0,1,2.3.5,2.9,2.9,0,0,1,1.4,1.3,3.3,3.3,0,0,1,.7,1.6,7.7,7.7,0,0,1,.2,1.5,2,2,0,0,1-.1.7v.4l-.2,1.1h-.2v.2a4.5,4.5,0,0,1-1.9,2.7A5.9,5.9,0,0,1,36.8,23.4Z" transform="translate(11.9 59.3)"/><path class="cls-5" d="M42.2,14H44l.5,5.8h0L47.1,14H49l.3,5.8h.1L52.1,14h1.8l-4.1,8H48l-.4-5.8h0L45,22H43.1Z" transform="translate(11.9 59.3)"/><polygon class="cls-6" points="62.4 82.5 58.7 82.5 58.5 80.5 57.6 82.5 53.9 82.5 52.6 72.1 57 72.1 57.2 74.3 58.2 72.1 62 72.1 62.1 74.3 63.2 72.1 67.8 72.1 62.4 82.5"/><path class="cls-5" d="M60.6,19.7c0,.1-.1.3-.1.4s-.1.2-.1.4a.3.3,0,0,0,.1.2h.9L61.1,22H59.8a1.1,1.1,0,0,1-.8-.3.9.9,0,0,1-.3-.7,2.4,2.4,0,0,1-1.2.7,4,4,0,0,1-1.5.3l-.9-.2a1.9,1.9,0,0,1-.8-.3,1.8,1.8,0,0,1-.5-.7,1.5,1.5,0,0,1-.2-.9,5.1,5.1,0,0,1,.2-1.3,3,3,0,0,1,.8-.8l1-.5,1.3-.2h1.7c.4,0,.6-.1.7-.3a1.1,1.1,0,0,0,.3-.8.8.8,0,0,0-.4-.7l-1-.2a2.4,2.4,0,0,0-1.2.3,1.1,1.1,0,0,0-.7.9H54.6a2.6,2.6,0,0,1,.5-1.2,3,3,0,0,1,.8-.8l1.1-.5h1.3L60,14l.9.5a2.1,2.1,0,0,1,.4.6v.6a5.7,5.7,0,0,1-.1,1.2Zm-5.3.1c0,.2.1.3.1.5l.4.3.4.2h.5l1.1-.2a2,2,0,0,0,.7-.6,1.9,1.9,0,0,0,.5-.9,3.6,3.6,0,0,0,.2-1h0c-.1.2-.3.2-.5.3H56.3l-.7.4A1.1,1.1,0,0,0,55.3,19.8Z" transform="translate(11.9 59.3)"/><path class="cls-6" d="M59.8,23.4a2,2,0,0,1-1.5-.5l-.4.2a5.8,5.8,0,0,1-1.9.3,3,3,0,0,1-1.3-.2,2.4,2.4,0,0,1-1.1-.6,2.4,2.4,0,0,1-.9-1.1,2.3,2.3,0,0,1-.4-1.4,3.8,3.8,0,0,1,.5-1.9l.3-.5h0l.3-1.5a4.9,4.9,0,0,1,.6-1.7,6.8,6.8,0,0,1,1.2-1.2l1.6-.6h1.5l2.1.2a3.8,3.8,0,0,1,1.4.9h0a1.9,1.9,0,0,1,.7,1.2h0c0,.3.1.5.1.8a7.8,7.8,0,0,1-.2,1.4l-.5,2.3H63L62.2,23l-.8.2H59.8Z" transform="translate(11.9 59.3)"/><path class="cls-5" d="M62.7,14h1.8l.9,5.8h0l3-5.8h1.9l-4.6,8.2-.6,1.1a2.2,2.2,0,0,1-.7.9,2.7,2.7,0,0,1-.8.7l-1.3.2h-1l.3-1.5h.7l.6-.2a1.2,1.2,0,0,0,.5-.5l.7-1.3Z" transform="translate(11.9 59.3)"/><path class="cls-6" d="M62.3,26.4,61,26.2l-1.2-.3.9-3.9,1.2.3h.4l.5-.9-1.6-8.7h4.4l.4,3.1,1.6-3.1h4.8l-5.6,10-.6,1.1-.8,1.2a3.8,3.8,0,0,1-1.3.9A4.8,4.8,0,0,1,62.3,26.4Z" transform="translate(11.9 59.3)"/><path class="cls-5" d="M75.4,16.3a1,1,0,0,0-.5-.8,2,2,0,0,0-1.1-.3h-.5l-.5.2-.3.3a4.3,4.3,0,0,0-.1.5.5.5,0,0,0,.2.4.7.7,0,0,0,.6.3l.7.3.9.3c.2,0,.4.2.6.3a.9.9,0,0,1,.6.4.9.9,0,0,1,.4.6,1.9,1.9,0,0,1,.2.8,2.7,2.7,0,0,1-.3,1.2l-.8.8-1.1.4-1.3.2H71.8l-1.1-.5a2.7,2.7,0,0,1-.7-.8,5.2,5.2,0,0,1-.2-1.4h1.6a1.5,1.5,0,0,0,.1.7l.4.4.6.2h1.2l.6-.2.4-.4a.7.7,0,0,0,.1-.5c0-.2,0-.4-.2-.5a1,1,0,0,0-.5-.4l-.8-.3-.9-.2-.7-.3-.5-.4-.4-.6a1.9,1.9,0,0,1-.1-.8,3.6,3.6,0,0,1,.2-1.1,2.7,2.7,0,0,1,.8-.7,1.8,1.8,0,0,1,1-.4l1.2-.2h1.2a2.3,2.3,0,0,1,1,.4,2.7,2.7,0,0,1,.7.8,2.3,2.3,0,0,1,.2,1.2Z" transform="translate(11.9 59.3)"/><path class="cls-6" d="M73.1,23.4H71.5L70,22.6a3.6,3.6,0,0,1-1.1-1.3,4.9,4.9,0,0,1-.4-1.9V18.2h1.6a2.5,2.5,0,0,1-.4-.7,2.8,2.8,0,0,1-.3-1.3,3.4,3.4,0,0,1,.5-1.7A4.3,4.3,0,0,1,71,13.3l1.5-.6h2.9a3.5,3.5,0,0,1,1.4.6,2.8,2.8,0,0,1,1.1,1.3,3.4,3.4,0,0,1,.4,1.8v1.2h-1a4.3,4.3,0,0,1,.4.7,5.1,5.1,0,0,1,.2,1.3,2.7,2.7,0,0,1-.5,1.8,4.3,4.3,0,0,1-1.1,1.2,4.4,4.4,0,0,1-1.6.6A3.9,3.9,0,0,1,73.1,23.4Z" transform="translate(11.9 59.3)"/><path class="cls-5" d="M79.5,13.9h1l.2-.2a.6.6,0,0,0,.1-.4.8.8,0,0,0-.2-.5l-.5-.2a.9.9,0,0,0-.7.3l-.3.6h-.7a1.4,1.4,0,0,1,.2-.6l.3-.5.6-.3h1.2l.5.3.3.3c0,.2.1.4.1.6a.9.9,0,0,1-.3.7.9.9,0,0,1-.6.4h0a1,1,0,0,1,.5.4,1.3,1.3,0,0,1,.1.6.8.8,0,0,1-.2.7,1,1,0,0,1-.4.5.6.6,0,0,1-.6.3h-.7a1.8,1.8,0,0,1-1.1-.3,1.3,1.3,0,0,1-.4-1v-.2h.7a.9.9,0,0,0,.3.6l.6.2a.8.8,0,0,0,.7-.3.9.9,0,0,0,.3-.7c0-.1,0-.3-.1-.3l-.2-.2h-.8Z" transform="translate(11.9 59.3)"/><path class="cls-6" d="M79.4,18.1a2.5,2.5,0,0,1-1.9-.7,2.3,2.3,0,0,1-.8-1.9v-.3h0V13.9H77l.2-.7a1.6,1.6,0,0,1,.3-.9,1.5,1.5,0,0,1,.6-.9l.9-.6,1.2-.2H81l.9.5a2.3,2.3,0,0,1,.7.7,4.3,4.3,0,0,1,.2,1.2,2,2,0,0,1-.4,1.3,2.2,2.2,0,0,1,.1.8,5.1,5.1,0,0,1-.2,1.3,3.4,3.4,0,0,1-.8.9,3.1,3.1,0,0,1-1,.5Z" transform="translate(11.9 59.3)"/><path class="cls-5" d="M24.4,11h2.1l3.4,8.2h0L31.6,11h1.9L31.2,22H29.1l-3.4-8.2h0L24,22H22.1Z" transform="translate(11.9 59.3)"/><path class="cls-6" d="M31.2,22H29.1l-3.4-8.2h0L24.1,22h-2l2.3-11h2.1l3.4,8.2h0L31.6,11h1.9Zm-2.1,0h2.1l2.3-11H31.6l-1.7,8.2h0L26.5,11H24.4L22.1,22H24l1.7-8.2h0Z" transform="translate(11.9 59.3)"/><path class="cls-7" d="M40.7,19.5a4.6,4.6,0,0,1-1.4,2.1,4.9,4.9,0,0,1-2.5.6,3.5,3.5,0,0,1-1.4-.3,2.4,2.4,0,0,1-1.1-.6,4.1,4.1,0,0,1-.7-1.1,3.6,3.6,0,0,1-.2-1.5,11,11,0,0,1,.2-1.8,3.8,3.8,0,0,1,.9-1.5,4.1,4.1,0,0,1,1.4-1.2,5.3,5.3,0,0,1,1.9-.4,3.1,3.1,0,0,1,1.7.4,2.2,2.2,0,0,1,1,.9,2.2,2.2,0,0,1,.5,1.1,6.2,6.2,0,0,1,.1,1.3v1h-6V19a1.9,1.9,0,0,0,.5,1.3,1.8,1.8,0,0,0,1.4.5,2.1,2.1,0,0,0,1.2-.3,1.4,1.4,0,0,0,.7-1Zm-1.3-2.2v-.5a1.8,1.8,0,0,0-.4-1.1,1.5,1.5,0,0,0-1.3-.5,1.9,1.9,0,0,0-1.5.6,3.8,3.8,0,0,0-.9,1.5Z" transform="translate(11.9 59.3)"/><path class="cls-6" d="M36.8,22.2,35.4,22a4.1,4.1,0,0,1-1.1-.7,4.1,4.1,0,0,1-.7-1.1,3.7,3.7,0,0,1-.3-1.5,5.7,5.7,0,0,1,.3-1.8,5.1,5.1,0,0,1,.9-1.6,5.3,5.3,0,0,1,1.4-1.1,3.8,3.8,0,0,1,1.9-.4,2.9,2.9,0,0,1,1.7.4,2.2,2.2,0,0,1,1,.9,2.2,2.2,0,0,1,.5,1.1,6.9,6.9,0,0,1,.2,1.3c0,.2-.1.3-.1.5v.5h-6V19a1.9,1.9,0,0,0,.5,1.3,1.8,1.8,0,0,0,1.4.5,2.1,2.1,0,0,0,1.2-.3,1.8,1.8,0,0,0,.7-1h1.8a4.6,4.6,0,0,1-1.4,2.1A4.9,4.9,0,0,1,36.8,22.2Zm1-8.4a5.3,5.3,0,0,0-1.9.4,4.1,4.1,0,0,0-1.4,1.2,3.6,3.6,0,0,0-.8,1.5,5.7,5.7,0,0,0-.3,1.8,6.8,6.8,0,0,0,.2,1.5,4.1,4.1,0,0,0,.7,1.1,3,3,0,0,0,1.1.6,3.5,3.5,0,0,0,1.4.3,3.6,3.6,0,0,0,2.4-.7,3,3,0,0,0,1.4-2H38.9a1.4,1.4,0,0,1-.7,1,2.1,2.1,0,0,1-1.2.3,2.1,2.1,0,0,1-1.5-.5,2.5,2.5,0,0,1-.4-1.3v-.5H41c.1-.1.1-.2.1-.4v-.5a6.2,6.2,0,0,0-.1-1.3,2.2,2.2,0,0,0-.5-1.1,2.2,2.2,0,0,0-1-.9A3.1,3.1,0,0,0,37.8,13.8Zm1.6,3.5H35.3a5.3,5.3,0,0,1,.8-1.5,2.3,2.3,0,0,1,1.6-.6,1.8,1.8,0,0,1,1.3.4,1.6,1.6,0,0,1,.4,1.2v.5Zm-4.1,0h4.1v-.5a1.4,1.4,0,0,0-.5-1.1,1.5,1.5,0,0,0-1.2-.5,1.9,1.9,0,0,0-1.5.6A3.8,3.8,0,0,0,35.3,17.3Z" transform="translate(11.9 59.3)"/><path class="cls-5" d="M42.2,14H44l.5,5.8h0L47.1,14H49l.3,5.8h.1L52.1,14h1.8l-4.1,8H48l-.4-5.8h0L45,22H43.1Z" transform="translate(11.9 59.3)"/><path class="cls-6" d="M49.8,22H48l-.4-5.8h0L45,22H43.1l-.9-8H44l.5,5.8h0L47.1,14H49l.3,5.8h0L52.1,14H54ZM48,22h1.8l4.1-8H52.1l-2.7,5.8h-.1L49,14H47.1l-2.6,5.8h0L44,14H42.2l.9,8H45l2.6-5.8h0Z" transform="translate(11.9 59.3)"/><path class="cls-5" d="M60.6,19.7c0,.1-.1.3-.1.4s-.1.2-.1.4a.3.3,0,0,0,.1.2h.9L61.1,22H59.8a1.1,1.1,0,0,1-.8-.3.9.9,0,0,1-.3-.7,2.4,2.4,0,0,1-1.2.7,4,4,0,0,1-1.5.3l-.9-.2a1.9,1.9,0,0,1-.8-.3,1.8,1.8,0,0,1-.5-.7,1.5,1.5,0,0,1-.2-.9,5.1,5.1,0,0,1,.2-1.3,3,3,0,0,1,.8-.8l1-.5,1.3-.2h1.7c.4,0,.6-.1.7-.3a1.1,1.1,0,0,0,.3-.8.8.8,0,0,0-.4-.7l-1-.2a2.4,2.4,0,0,0-1.2.3,1.1,1.1,0,0,0-.7.9H54.6a2.6,2.6,0,0,1,.5-1.2,3,3,0,0,1,.8-.8l1.1-.5h1.3L60,14l.9.5a2.1,2.1,0,0,1,.4.6v.6a5.7,5.7,0,0,1-.1,1.2Zm-5.3.1c0,.2.1.3.1.5l.4.3.4.2h.5l1.1-.2a2,2,0,0,0,.7-.6,1.9,1.9,0,0,0,.5-.9,3.6,3.6,0,0,0,.2-1h0c-.1.2-.3.2-.5.3H56.3l-.7.4A1.1,1.1,0,0,0,55.3,19.8Z" transform="translate(11.9 59.3)"/><path class="cls-6" d="M59.8,22.2a1.1,1.1,0,0,1-.8-.3.9.9,0,0,1-.3-.7l-1.2.8-1.5.2h-.9l-.8-.4a1.8,1.8,0,0,1-.5-.7,1.5,1.5,0,0,1-.2-.9,2.7,2.7,0,0,1,.2-1.3,3,3,0,0,1,.8-.8l1-.5,1.3-.2h1.7c.4,0,.6-.1.7-.3a1.1,1.1,0,0,0,.3-.8.8.8,0,0,0-.4-.7l-1-.2a2.4,2.4,0,0,0-1.2.3,1.1,1.1,0,0,0-.7.9H54.6a2.2,2.2,0,0,1,.5-1.2,3,3,0,0,1,.8-.8l1.1-.5h1.3L60,14l.9.5a2.1,2.1,0,0,1,.4.6v.6a5.7,5.7,0,0,1-.1,1.2l-.6,2.8c0,.1-.1.3-.1.4s-.1.2-.1.4.1.1.1.2h.9L61.1,22H59.8Zm-1.1-1h0a.9.9,0,0,0,.3.7,1.1,1.1,0,0,0,.8.3h1.3l.3-1.3h-.9c-.1,0-.1-.1-.1-.2s0-.3.1-.4,0-.3.1-.4l.6-2.8a5.7,5.7,0,0,0,.1-1.2v-.6a2.1,2.1,0,0,0-.4-.6L60,14l-1.7-.2L57,14a2.1,2.1,0,0,0-1.1.4,3,3,0,0,0-.8.8,3.3,3.3,0,0,0-.5,1.2h1.6a1.6,1.6,0,0,1,.8-1l1.2-.2,1,.2a.8.8,0,0,1,.4.7,1.9,1.9,0,0,1-.2.8,1,1,0,0,1-.8.3H56.9l-1.3.2-1,.5a3,3,0,0,0-.8.8,5.1,5.1,0,0,0-.2,1.3,1.5,1.5,0,0,0,.2.9,1.5,1.5,0,0,0,.5.6,1.2,1.2,0,0,0,.8.4l.9.2a4,4,0,0,0,1.5-.3,2.9,2.9,0,0,0,1.2-.7Zm-2-.4h-.5l-.4-.2-.4-.3a.7.7,0,0,1-.1-.5,1.1,1.1,0,0,1,.3-.8l.7-.4h2.4c.2-.1.4-.1.5-.3h0a3.6,3.6,0,0,1-.2,1,1.9,1.9,0,0,1-.5.9,1.3,1.3,0,0,1-.7.6Zm2.5-2.7-.5.2H56.3l-.7.4a1.1,1.1,0,0,0-.3.8c0,.2.1.3.2.5l.3.3h.9l1.1-.2.7-.6a3.6,3.6,0,0,0,.5-.9c.1-.3.1-.7.2-1Z" transform="translate(11.9 59.3)"/><path class="cls-5" d="M62.7,14h1.8l.9,5.8h0l3-5.8h1.9l-4.6,8.2-.6,1.1a2.2,2.2,0,0,1-.7.9,2.7,2.7,0,0,1-.8.7l-1.3.2h-1l.3-1.5h.7l.6-.2a1.2,1.2,0,0,0,.5-.5l.7-1.3Z" transform="translate(11.9 59.3)"/><path class="cls-6" d="M62.3,25.1h-1l.3-1.5h.7l.6-.2a1.2,1.2,0,0,0,.5-.5l.7-1.3L62.7,14h1.8l.9,5.8h0l3-5.8h1.9l-4.6,8.2-.6,1.1a3.5,3.5,0,0,1-.6.9l-.9.7A2.7,2.7,0,0,1,62.3,25.1Zm-1-.1h1l1.3-.2a2.7,2.7,0,0,0,.8-.7,2.2,2.2,0,0,0,.7-.9l.6-1.1L70.2,14H68.4l-3,5.8h0L64.5,14H62.7l1.4,7.7L63.4,23a1.2,1.2,0,0,1-.5.5l-.6.2h-.7Z" transform="translate(11.9 59.3)"/><path class="cls-5" d="M75.4,16.3a1,1,0,0,0-.5-.8,2,2,0,0,0-1.1-.3h-.5l-.5.2-.3.3a4.3,4.3,0,0,0-.1.5.5.5,0,0,0,.2.4.7.7,0,0,0,.6.3l.7.3.9.3c.2,0,.4.2.6.3a.9.9,0,0,1,.6.4.9.9,0,0,1,.4.6,1.9,1.9,0,0,1,.2.8,2.7,2.7,0,0,1-.3,1.2l-.8.8-1.1.4-1.3.2H71.8l-1.1-.5a2.7,2.7,0,0,1-.7-.8,5.2,5.2,0,0,1-.2-1.4h1.6a1.5,1.5,0,0,0,.1.7l.4.4.6.2h1.2l.6-.2.4-.4a.7.7,0,0,0,.1-.5c0-.2,0-.4-.2-.5a1,1,0,0,0-.5-.4l-.8-.3-.9-.2-.7-.3-.5-.4-.4-.6a1.9,1.9,0,0,1-.1-.8,3.6,3.6,0,0,1,.2-1.1,2.7,2.7,0,0,1,.8-.7,1.8,1.8,0,0,1,1-.4l1.2-.2h1.2a2.3,2.3,0,0,1,1,.4,2.7,2.7,0,0,1,.7.8,2.3,2.3,0,0,1,.2,1.2Z" transform="translate(11.9 59.3)"/><path class="cls-6" d="M73.1,22.2H71.8l-1.1-.5a2.7,2.7,0,0,1-.7-.8c-.1-.4-.2-.8-.3-1.4h1.7c0,.3.1.5.1.7l.4.4.6.2h1.8l.4-.4a.7.7,0,0,0,.1-.5c0-.2,0-.4-.2-.5a.9.9,0,0,0-.6-.4l-.7-.3-.9-.2-.7-.3-.5-.4-.4-.6a1.9,1.9,0,0,1-.1-.8,3.6,3.6,0,0,1,.2-1.1,2.7,2.7,0,0,1,.8-.7,3.1,3.1,0,0,1,1-.5h2.5a2.5,2.5,0,0,1,.9.4,2.7,2.7,0,0,1,.7.8,2.3,2.3,0,0,1,.2,1.2H75.4a1.4,1.4,0,0,0-.5-.8,2,2,0,0,0-1.1-.3h-1l-.3.3a4.3,4.3,0,0,0-.1.5.5.5,0,0,0,.2.4l.6.3.7.3.9.2.6.4a.9.9,0,0,1,.6.4.9.9,0,0,1,.4.6,1.1,1.1,0,0,1,.2.8,2.7,2.7,0,0,1-.3,1.2l-.8.8-1.1.5Zm-3.3-2.8a5.2,5.2,0,0,0,.2,1.4l.7.8a2.1,2.1,0,0,0,1.1.4l1.3.2,1.3-.2,1.1-.4.8-.8a2.7,2.7,0,0,0,.3-1.2,1.9,1.9,0,0,0-.2-.8.9.9,0,0,0-.4-.6.9.9,0,0,0-.6-.4l-.7-.3-.8-.3-.7-.3a.7.7,0,0,1-.6-.3.5.5,0,0,1-.2-.4.7.7,0,0,1,.1-.5l.3-.3.5-.2h.5a2,2,0,0,1,1.1.3.9.9,0,0,1,.5.8H77a2.3,2.3,0,0,0-.2-1.2,2.7,2.7,0,0,0-.7-.8l-1-.4H73.9l-1.2.2-1,.4a1.6,1.6,0,0,0-.7.7,2,2,0,0,0-.3,1.1,1.9,1.9,0,0,0,.1.8l.4.6.6.4.6.3.9.2.8.3a1,1,0,0,1,.5.4.5.5,0,0,1,.3.5.8.8,0,0,1-.2.5l-.4.4-.6.2H72.5l-.6-.2-.4-.4a1.5,1.5,0,0,1-.1-.7Z" transform="translate(11.9 59.3)"/><path class="cls-5" d="M79.5,13.9h1l.2-.2a.6.6,0,0,0,.1-.4.8.8,0,0,0-.2-.5l-.5-.2a.9.9,0,0,0-.7.3l-.3.6h-.7a1.4,1.4,0,0,1,.2-.6l.3-.5.6-.3h1.2l.5.3.3.3c0,.2.1.4.1.6a.9.9,0,0,1-.3.7.9.9,0,0,1-.6.4h0a1,1,0,0,1,.5.4,1.3,1.3,0,0,1,.1.6.8.8,0,0,1-.2.7,1,1,0,0,1-.4.5.6.6,0,0,1-.6.3h-.7a1.8,1.8,0,0,1-1.1-.3,1.3,1.3,0,0,1-.4-1v-.2h.7a.9.9,0,0,0,.3.6l.6.2a.8.8,0,0,0,.7-.3.9.9,0,0,0,.3-.7c0-.1,0-.3-.1-.3l-.2-.2h-.8Z" transform="translate(11.9 59.3)"/><path class="cls-6" d="M79.4,16.8a1.8,1.8,0,0,1-1.1-.3,1.3,1.3,0,0,1-.4-1v-.2h.8a.1.1,0,0,0-.1.1h0a.9.9,0,0,0,.3.6l.6.2a.8.8,0,0,0,.7-.3.9.9,0,0,0,.3-.7c0-.1,0-.3-.1-.3l-.2-.2h-.8v-.6h1l.2-.2a.6.6,0,0,0,.1-.4.8.8,0,0,0-.2-.5l-.5-.2a.9.9,0,0,0-.7.3l-.3.6h-.7a1.4,1.4,0,0,1,.2-.6l.3-.5c.2-.1.4-.3.6-.3h1.2l.5.2.3.4a1.3,1.3,0,0,1,.1.6.9.9,0,0,1-.3.7.7.7,0,0,1-.6.4h0a1,1,0,0,1,.5.4,1.3,1.3,0,0,1,.1.6,1.5,1.5,0,0,1-.1.7,1.2,1.2,0,0,1-.5.5.6.6,0,0,1-.6.3Zm-1.5-1.6h0v.2a1.3,1.3,0,0,0,.4,1,1.8,1.8,0,0,0,1.1.3h.7a.7.7,0,0,0,.6-.3,1,1,0,0,0,.4-.5,1.4,1.4,0,0,0,.2-.7c0-.2-.1-.4-.1-.6a1,1,0,0,0-.5-.4h0a.9.9,0,0,0,.6-.4.9.9,0,0,0,.3-.7c0-.2-.1-.4-.1-.6l-.4-.3-.4-.3H79.5l-.6.3-.3.5a1.4,1.4,0,0,0-.2.6h.7a3.3,3.3,0,0,1,.3-.6.9.9,0,0,1,.7-.3l.5.2a.6.6,0,0,1,.2.5.6.6,0,0,1-.1.4l-.2.2h-.9l-.2.5h.8l.3.3v.3a1.4,1.4,0,0,1-.2.7,1.1,1.1,0,0,1-.8.3l-.6-.2a.9.9,0,0,1-.3-.6h-.7Z" transform="translate(11.9 59.3)"/><path class="cls-6" d="M243.9,34V12.4a5.3,5.3,0,0,0-5.3-5.3H199.4a5.3,5.3,0,0,0-5.3,5.3V43.2h49.8Z" transform="translate(11.9 59.3)"/><path class="cls-8" d="M199.4,51.9h39.2a5.4,5.4,0,0,0,5.3-5.4V43.2H194.1v3.3A5.4,5.4,0,0,0,199.4,51.9Z" transform="translate(11.9 59.3)"/><path class="cls-6" d="M204.1,41.3a21.6,21.6,0,0,1-3.9-2.3l-1.4-.9a4.8,4.8,0,0,1-2,2.2c-.4.2-.4,0-.2-.2a7.2,7.2,0,0,0,1.7-2.2,2.3,2.3,0,0,0,.2-1.1c0-.2.1-.3.5-.1s.4.4.3.6l-.3.4,1,.6V37.1a3.1,3.1,0,0,0-.1-1.2l-2,.5c-.4.2-.6.2-1-.2s-.2-.4.1-.3l3.1-.5V34.2c-1,.3-1.3.2-1.6,0s-.2-.2.1-.3l1.5-.3a4.5,4.5,0,0,0-.3-2.2c-.3-.3,0-.5.6-.2s.6.4.5.6a6.3,6.3,0,0,0-.2,1.6h.8c.4.1.4.4,0,.6l-.9.2v1.2l1.2-.2c.3.1.3.4,0,.4l-1.5.3q.4.3.3.6V37c.6-.3.9-.4,1-.3s.5.3.2.4a1.7,1.7,0,0,1-1.2.2v1.3a12,12,0,0,0,7.1,1.9c.4,0,.5.2.1.3-2.7.8-2.9.8-3.6.5Z" transform="translate(11.9 59.3)"/><path class="cls-6" d="M205.7,34.2a3,3,0,0,1-.7,1.5c-.3.1-.4.1-.5-.1a2,2,0,0,0-.4-.8c-.1-.1,0-.2.1-.1s.5.1.7-.1a12.4,12.4,0,0,0,.4-1.6c0-.2-.1-.3-.3-.2l-1.1.2c.4.3.4.4.2.6s-.1.2-.2.4a4.4,4.4,0,0,1-1.7,2.3c-.2.1-.4,0-.2-.2a5.1,5.1,0,0,0,1.5-3,1.2,1.2,0,0,1-1.2-.1c-.1-.1,0-.2.1-.2a6.6,6.6,0,0,0,2.6-.6.8.8,0,0,1,.9.2c.5.3.5.5.3.6a2.8,2.8,0,0,0-.5,1.2Z" transform="translate(11.9 59.3)"/><path class="cls-9" d="M204.1,41.3a21.6,21.6,0,0,1-3.9-2.3l-1.4-.9a4.8,4.8,0,0,1-2,2.2c-.4.2-.4,0-.2-.2a7.2,7.2,0,0,0,1.7-2.2,2.3,2.3,0,0,0,.2-1.1c0-.2.1-.3.5-.1s.4.4.3.6l-.3.4,1,.6V37.1a3.1,3.1,0,0,0-.1-1.2l-2,.5c-.4.2-.6.2-1-.2s-.2-.4.1-.3l3.1-.5V34.2c-1,.3-1.3.2-1.6,0s-.2-.2.1-.3l1.5-.3a4.5,4.5,0,0,0-.3-2.2c-.3-.3,0-.5.6-.2s.6.4.5.6a6.3,6.3,0,0,0-.2,1.6h.8c.4.1.4.4,0,.6l-.9.2v1.2l1.2-.2c.3.1.3.4,0,.4l-1.5.3q.4.3.3.6V37c.6-.3.9-.4,1-.3s.5.3.2.4a1.7,1.7,0,0,1-1.2.2v1.3a12,12,0,0,0,7.1,1.9c.4,0,.5.2.1.3-2.7.8-2.9.8-3.6.5Z" transform="translate(11.9 59.3)"/><path class="cls-10" d="M205.7,34.2a3,3,0,0,1-.7,1.5c-.3.1-.4.1-.5-.1a2,2,0,0,0-.4-.8c-.1-.1,0-.2.1-.1s.5.1.7-.1a12.4,12.4,0,0,0,.4-1.6c0-.2-.1-.3-.3-.2l-1.1.2c.4.3.4.4.2.6s-.1.2-.2.4a4.4,4.4,0,0,1-1.7,2.3c-.2.1-.4,0-.2-.2a5.1,5.1,0,0,0,1.5-3,1.2,1.2,0,0,1-1.2-.1c-.1-.1,0-.2.1-.2a6.6,6.6,0,0,0,2.6-.6.8.8,0,0,1,.9.2c.5.3.5.5.3.6a2.8,2.8,0,0,0-.5,1.2Z" transform="translate(11.9 59.3)"/><path class="cls-9" d="M205.9,36.3a1.9,1.9,0,0,0-1-.1,5.3,5.3,0,0,1-1.9.4c-.6-.1-.7-.1-.6.2a4.7,4.7,0,0,1,.4,1.7c.1.4.2.7.3.6s.2-.1.3-.3l2.2-.2c.2,0,.2-.3,0-.4s-.1-.2,0-.4.3-.7.6-.9S206.3,36.6,205.9,36.3Zm-1.3,1.9-1.3.2a5.7,5.7,0,0,0-.1-1.4,5.7,5.7,0,0,1,1.6-.2c.1,0,.3,0,.3.2S204.9,38.1,204.6,38.2Z" transform="translate(11.9 59.3)"/><path class="cls-11" d="M209.8,40.2c-.4.4-.5.4-1,0s-.3-.6.2-.6a3,3,0,0,0,1.3-.4l1.9-.8c.7-.2.7,0,.3.2l-2.7,1.6Z" transform="translate(11.9 59.3)"/><path class="cls-11" d="M210.7,37.2a8,8,0,0,1,2-.5c.3,0,.3.2.1.3a7.1,7.1,0,0,0-2.6,1c-.4.2-.6.2-.7-.1s-.1-.5.5-.7a4.8,4.8,0,0,0,1.4-1.5,3.9,3.9,0,0,0-1.8.4c-.4.2-.5.1-.5-.3s0-.3.3-.5.5-.3,1.1-1.7a2.8,2.8,0,0,0,.3-1.6c-.1-.3.2-.5.7,0s.5.5.2.7l-1.6,2.7a7.4,7.4,0,0,1,1.5,0c.6-1,.7-1.2.7-1.4s.1-.4.6,0,.2.3,0,.6a25,25,0,0,0-2.2,2.6Z" transform="translate(11.9 59.3)"/><path class="cls-11" d="M220.2,40.6H220a6.6,6.6,0,0,1-3.4-1.8,9,9,0,0,0,.7-1.4c.1-.4.1-.6.2-.7s.3-.4-.1-.6l-.5-.2h-.6a7.3,7.3,0,0,1,1.4-2.3c.4-.3.3-.4-.2-.7s-.7-.3-1.1,0a11.5,11.5,0,0,1-2.8.8c-.4,0-.4.1-.3.3h.3a1.1,1.1,0,0,0,.8,0,3.4,3.4,0,0,1-.1.9h0v.2c0,.1,0,.1-.1.2v.2a.4.4,0,0,1-.1.3V36c0,.1-.1.2-.1.3v.2h-.1v.2a.8.8,0,0,0-.1.4v.2c0,.1,0,.1-.1.2h0a8.3,8.3,0,0,1-2,2.9c-.5.3-.4.5,0,.3a4.8,4.8,0,0,0,2.2-2.4l.6-1.3,1,.9a3.5,3.5,0,0,1,.5.8,4.6,4.6,0,0,1-.7.7l-1.4.9h-.1c-.5.2-.4.3-.1.3a4.8,4.8,0,0,0,2.7-1.5l1,1.4c.5.6.5.6,2.7.3h.2Zm-3.6-3.8a6.6,6.6,0,0,1-.4,1.5l-.6-.6a3.7,3.7,0,0,0-1-1.1l.3-1.1c.1-.4.1-.6.3-.8s.2-.4-.6-.9l.9-.3c1.1-.4,1.2-.3,1.2.2a10.7,10.7,0,0,1-.6,1.7c-.4.5-.4.5,0,.6S216.6,36.3,216.6,36.8Z" transform="translate(11.9 59.3)"/><path class="cls-11" d="M209.8,40.2c-.4.4-.5.4-1,0s-.3-.6.2-.6a3,3,0,0,0,1.3-.4l1.9-.8c.7-.2.7,0,.3.2l-2.7,1.6Z" transform="translate(11.9 59.3)"/><path class="cls-11" d="M210.7,37.2a8,8,0,0,1,2-.5c.3,0,.3.2.1.3a7.1,7.1,0,0,0-2.6,1c-.4.2-.6.2-.7-.1s-.1-.5.5-.7a4.8,4.8,0,0,0,1.4-1.5,3.9,3.9,0,0,0-1.8.4c-.4.2-.5.1-.5-.3s0-.3.3-.5.5-.3,1.1-1.7a2.8,2.8,0,0,0,.3-1.6c-.1-.3.2-.5.7,0s.5.5.2.7l-1.6,2.7a7.4,7.4,0,0,1,1.5,0c.6-1,.7-1.2.7-1.4s.1-.4.6,0,.2.3,0,.6a25,25,0,0,0-2.2,2.6Z" transform="translate(11.9 59.3)"/><path class="cls-11" d="M220.2,40.6H220a6.6,6.6,0,0,1-3.4-1.8,9,9,0,0,0,.7-1.4c.1-.4.1-.6.2-.7s.3-.4-.1-.6l-.5-.2h-.6a7.3,7.3,0,0,1,1.4-2.3c.4-.3.3-.4-.2-.7s-.7-.3-1.1,0a11.5,11.5,0,0,1-2.8.8c-.4,0-.4.1-.3.3h.3a1.1,1.1,0,0,0,.8,0h0a3.4,3.4,0,0,1-.1.9h0v.2c0,.1,0,.1-.1.2v.2a.4.4,0,0,1-.1.3V36c0,.1-.1.2-.1.3v.2h-.1v.2a.8.8,0,0,0-.1.4v.2c0,.1,0,.1-.1.2h0a8.3,8.3,0,0,1-2,2.9c-.5.3-.4.5,0,.3a4.8,4.8,0,0,0,2.2-2.4l.6-1.3,1,.9a3.5,3.5,0,0,1,.5.8,4.6,4.6,0,0,1-.7.7l-1.4.9h-.1c-.5.2-.4.3-.1.3a4.8,4.8,0,0,0,2.7-1.5l1,1.4c.5.6.5.6,2.7.3h.2Zm-3.6-3.8a6.6,6.6,0,0,1-.4,1.5l-.6-.6a3.7,3.7,0,0,0-1-1.1l.3-1.1c.1-.4.1-.6.3-.8s.2-.4-.6-.9l.9-.3c1.1-.4,1.2-.3,1.2.2a10.7,10.7,0,0,1-.6,1.7c-.4.5-.4.5,0,.6S216.6,36.3,216.6,36.8Z" transform="translate(11.9 59.3)"/><path class="cls-6" d="M223.7,35.9a7.3,7.3,0,0,1-3.1,2.9c-.3.1-.3-.1-.1-.3a9.1,9.1,0,0,0,2.8-3.4,1.7,1.7,0,0,0,.3-1.4c-.1-.3.1-.5.6-.3s.7.7.5,1l-1,1.5Z" transform="translate(11.9 59.3)"/><path class="cls-6" d="M228.3,40.7l-.8-1.1a18,18,0,0,0-4.1,1.3c-.5.2-.6.2-.6-.4s.1-.7.3-.7a1.7,1.7,0,0,0,.9-.7,7.8,7.8,0,0,0,1.2-2.7c-.1-.4.1-.4.5-.1s.7.5.4.8a4.5,4.5,0,0,0-.7.9c-.5.6-1,1.4-1.4,1.8l3.3-.5-.5-.9c-.2-.4,0-.4.3-.3s1.9,1.6,1.8,2.2-.3.8-.6.4Z" transform="translate(11.9 59.3)"/><path class="cls-6" d="M228.9,36.6a32.8,32.8,0,0,1-2-3.1,7.2,7.2,0,0,0-1.4-1.7c-.3-.1-.3-.4.1-.3a1.4,1.4,0,0,1,1.2.7c1.8,2.9,3.1,3.8,5.2,4.5.4.1.4.3,0,.4-2.2.1-2.6.1-3.1-.5Z" transform="translate(11.9 59.3)"/><path class="cls-12" d="M223.7,35.9a7.3,7.3,0,0,1-3.1,2.9c-.3.1-.3-.1-.1-.3a9.1,9.1,0,0,0,2.8-3.4,1.7,1.7,0,0,0,.3-1.4c-.1-.3.1-.5.6-.3s.7.7.5,1l-1,1.5Z" transform="translate(11.9 59.3)"/><path class="cls-12" d="M228.3,40.7l-.8-1.1a18,18,0,0,0-4.1,1.3c-.5.2-.6.2-.6-.4s.1-.7.3-.7a1.7,1.7,0,0,0,.9-.7,7.8,7.8,0,0,0,1.2-2.7c-.1-.4.1-.4.5-.1s.7.5.4.8a4.5,4.5,0,0,0-.7.9c-.5.6-1,1.4-1.4,1.8l3.3-.5-.5-.9c-.2-.4,0-.4.3-.3s1.9,1.6,1.8,2.2-.3.8-.6.4Z" transform="translate(11.9 59.3)"/><path class="cls-12" d="M228.9,36.6a32.8,32.8,0,0,1-2-3.1,7.2,7.2,0,0,0-1.4-1.7c-.3-.1-.3-.4.1-.3a1.4,1.4,0,0,1,1.2.7c1.8,2.9,3.1,3.8,5.2,4.5.4.1.4.3,0,.4-2.2.1-2.6.1-3.1-.5Z" transform="translate(11.9 59.3)"/><path class="cls-6" d="M239.7,33.7c-.4.1-.5,0-.3-.2s.5-.9-.1-.9l-4.1.5c-.9.2-1,.2-1.3,0s-.6,1.5-.9,1.6-.4,0-.4-.2a1,1,0,0,1,.1-.8,4.1,4.1,0,0,0,.7-1.1c.1-.4.2-.4.5.3l3.2-.4,2.4-.4c.3-.1.5,0,1.2.5s.8,1,.3.9a2.4,2.4,0,0,0-1.3.2Z" transform="translate(11.9 59.3)"/><path class="cls-6" d="M240.2,37.4a.8.8,0,0,0-.9-.2l-2.5.4v-.9h.9c.1.2.2.2.5-.2a2.8,2.8,0,0,0,.5-1.1l.4-.7v-.2h.1c.2-.1.2-.2,0-.4a1.1,1.1,0,0,0-.6-.3H238a21.4,21.4,0,0,1-3.1.6c-.7-.2-.7,0-.5.2a7,7,0,0,1,.4,1.9c.2.7.2.7.4.7a.1.1,0,0,0,.1-.1h1v1l-2.3.2c-.7-.3-.9-.2-.7.1a1.4,1.4,0,0,1,.2.7,6.2,6.2,0,0,1,.1,1.3,1.3,1.3,0,0,0,.1.9c.1.3.4.3.5-.2V38.3l2.1-.3v1.3h-1.5c-.2,0-.3.1,0,.5s.3.2.6.1h.3c0-.1.1-.1.2-.1h1.2l.7-.2.3.4c.2.3.4.1.5-.2a.9.9,0,0,0-.4-.8.1.1,0,0,1-.1-.1c-.1,0-.2,0-.2-.1h-.3c-.2,0-.2,0-.1.2l.2.3-1,.2V37.9l2.2-.2c.5,0,.7.1.7.7a7.4,7.4,0,0,1-.2,1.8c-.1.4-.2.4-.8.2s-.4-.1-.1.2h.1c0,.1.1.1.1.2s.2.3.2.4a.1.1,0,0,0,.1.1c.1.3.2.4.6,0a2,2,0,0,0,.6-1.2.4.4,0,0,0,.1-.3v-.3a2.8,2.8,0,0,1,.1-.9,1.4,1.4,0,0,1,.2-.7C240.8,37.8,240.7,37.7,240.2,37.4Zm-4.6-1.8a.8.8,0,0,0,.7,0v.9l-1,.2c0-.6-.1-1.1-.2-2.2h1.1a1.9,1.9,0,0,1,.1.8l-.6.2C235.5,35.4,235.4,35.5,235.6,35.6Zm1.1-1.3h1.1c.4,0,.4,0,.4.3a6.2,6.2,0,0,1-.4,1.6c0,.3-.1.3-.3.2h-.7v-.8l.7-.2c.2,0,.2-.2.1-.3h-.8a.8.8,0,0,0,.1-.4A.6.6,0,0,0,236.7,34.3Z" transform="translate(11.9 59.3)"/><path class="cls-6" d="M235.1,34.5h0Z" transform="translate(11.9 59.3)"/><path class="cls-6" d="M236.8,32.2l-.8-.8c-.1-.3-.1-.4.2-.3s1.3.3,1.2.9-.3.4-.6.2Z" transform="translate(11.9 59.3)"/><path class="cls-13" d="M239.7,33.7c-.4.1-.5,0-.3-.2s.5-.9-.1-.9l-4.1.5c-.9.2-1,.2-1.3,0s-.6,1.5-.9,1.6-.4,0-.4-.2a1,1,0,0,1,.1-.8,4.1,4.1,0,0,0,.7-1.1c.1-.4.3-.4.5.3l3.2-.4,2.4-.4c.3-.1.5,0,1.2.5s.8,1,.3.9a2.4,2.4,0,0,0-1.3.2Z" transform="translate(11.9 59.3)"/><path class="cls-13" d="M240.2,37.4a.8.8,0,0,0-.9-.2l-2.5.4v-.9h.9c.1.2.2.2.5-.2a2.8,2.8,0,0,0,.5-1.1l.4-.7v-.2h.1c.2-.1.2-.2,0-.4a1.1,1.1,0,0,0-.6-.3H238a21.4,21.4,0,0,1-3.1.6c-.7-.2-.7,0-.5.2a7,7,0,0,1,.4,1.9c.2.7.2.7.4.7a.1.1,0,0,0,.1-.1h1v1l-2.3.2c-.7-.3-.9-.2-.7.1a1.4,1.4,0,0,1,.2.7,6.2,6.2,0,0,1,.1,1.3,1.3,1.3,0,0,0,.1.9c.1.3.4.3.5-.2V38.3l2.1-.3v1.3h-1.5c-.2,0-.3.1,0,.5s.3.2.6.1h.3c0-.1.1-.1.2-.1h1.2l.7-.2.3.4c.2.3.4.1.5-.2a.9.9,0,0,0-.4-.8.1.1,0,0,1-.1-.1c-.1,0-.2,0-.2-.1h-.3c-.2,0-.2,0-.1.2l.2.3-1,.2V37.9l2.2-.2c.5,0,.7.1.7.7a7.4,7.4,0,0,1-.2,1.8c-.1.4-.2.4-.8.2s-.4-.1-.1.2h.1c0,.1.1.1.1.2s.2.3.2.4a.1.1,0,0,0,.1.1c.1.3.2.4.6,0a2,2,0,0,0,.6-1.2.4.4,0,0,0,.1-.3v-.3a2.8,2.8,0,0,1,.1-.9,1.4,1.4,0,0,1,.2-.7C240.8,37.8,240.7,37.7,240.2,37.4Zm-4.6-1.8a.8.8,0,0,0,.7,0v.9l-1,.2c0-.6-.1-1.1-.2-2.2h1.1a1.9,1.9,0,0,1,.1.8l-.6.2C235.5,35.4,235.4,35.5,235.6,35.6Zm1.1-1.3h1.1c.4,0,.4,0,.4.3a6.2,6.2,0,0,1-.4,1.6c0,.3-.1.3-.3.2h-.7v-.8l.7-.2c.2,0,.2-.2.1-.3h-.8a.8.8,0,0,0,.1-.4A.6.6,0,0,0,236.7,34.3Z" transform="translate(11.9 59.3)"/><path class="cls-13" d="M236.8,32.2l-.8-.8c-.1-.3-.1-.4.2-.3s1.3.3,1.2.9-.3.4-.6.2Z" transform="translate(11.9 59.3)"/><path class="cls-14" d="M218.9,25.7a2.1,2.1,0,0,1-1.4,1.9l-1.1.2H199l-1.1-.2a2,2,0,0,1-1.4-2,2.1,2.1,0,0,1,.3-1.3,2.5,2.5,0,0,1,1.4-.8h15.1a.9.9,0,0,0,.7-.9V22a1,1,0,0,0-.8-.8H198a2.1,2.1,0,0,1-1.5-2V12.4a2,2,0,0,1,1.3-1.9l1.1-.2,1.1.2a1.9,1.9,0,0,1,1.3,1.7v.7a28.1,28.1,0,0,1,0,2.9.9.9,0,0,0,.9,1h15.2a2.1,2.1,0,0,1,1.5,1.9Z" transform="translate(11.9 59.3)"/><path class="cls-15" d="M218.7,13.4a2.3,2.3,0,0,1-1.5,1.2h-11l-1.1-.2a1.9,1.9,0,0,1-1.3-1.8,1.7,1.7,0,0,1,.3-1.4,1.9,1.9,0,0,1,1.4-.9h10.8a3,3,0,0,1,1.3.2,2.2,2.2,0,0,1,1.3,1.9A3.6,3.6,0,0,1,218.7,13.4Z" transform="translate(11.9 59.3)"/><path class="cls-14" d="M230.4,11.1a.7.7,0,0,0-.7-.7h-1.1l-1.4.2h-1.7v9.5h0c0,.2,0,.2.2.2H227c.1,0,.1,0,.1-.2s0,0,0-.1V17.9c.1-.2.1-.2.2-.2h1.2l.9-.2a1.1,1.1,0,0,0,.9-.8,1.3,1.3,0,0,0,.1-.6V11.1Zm-1.7,4.6V16c-.1.2-.2.3-.4.3h-1c-.1,0-.2,0-.2-.1a4.8,4.8,0,0,0,0-1.2V11.9h1.6Z" transform="translate(11.9 59.3)"/><path class="cls-16" d="M235.7,15.2h-1.2c-.2,0-.2,0-.2.2v.9h-1.6V14.5h2.4a.9.9,0,0,0,.6-.3h0a.5.5,0,0,0,.2-.4V10.9c-.1-.3-.2-.5-.5-.5h-3.5a.7.7,0,0,0-.6.7c-.1,0-.1.1-.1.2v5.6a.8.8,0,0,0,.6.8H235a.8.8,0,0,0,.9-.9V15.4C235.9,15.2,235.9,15.2,235.7,15.2Zm-3-3.5c0-.1,0-.2.1-.2h1.4c.1,0,.1.1.1.2v1.5a.1.1,0,0,1-.1.1h-1.4c-.1,0-.1,0-.1-.1Z" transform="translate(11.9 59.3)"/><path class="cls-11" d="M224.7,10.5v7c0,.2-.1.2-.2.2h-1.3c-.2,0-.2,0-.2-.2h0l-1.6.2h-1a.9.9,0,0,1-.6-.6V10.5h1.4c.2,0,.2,0,.2.2V16c0,.2,0,.3.2.3H223V10.6c0-.3,0-.3.2-.3h1.2C224.7,10.3,224.7,10.3,224.7,10.5Z" transform="translate(11.9 59.3)"/><path class="cls-17" d="M241.3,13.3h-1.7V11.9c0-.2,0-.2-.1-.2h-1c-.2,0-.2,0-.2.2v5.5c0,.2,0,.2-.1.2h-1.4c-.1,0-.1,0-.1-.2V10.4h1.6c0,.2,0,.2.1.2h.1l1-.2h1c.5.1.8.3.8.8Z" transform="translate(11.9 59.3)"/><polygon class="cls-18" points="236.2 87 234.9 87 234.9 83.3 233 83.3 233 87 231.6 87 231.6 78.7 233 78.7 233 82.1 234.9 82.1 234.9 78.7 236.2 78.7 236.2 87 236.2 87"/><path class="cls-18" d="M227.9,26.7V23.4h-1.3v3.3Zm1.3.4a.6.6,0,0,1-.7.7h-2.4a.7.7,0,0,1-.8-.7V23c0-.4.3-.6.8-.6h2.4c.5,0,.7.2.7.6v4.1Z" transform="translate(11.9 59.3)"/><path class="cls-18" d="M236.6,27.8h-1.3V23.4H234v4.4h-1.3V23.4h-1.3v4.4h-1.3V22.4h1.3v.2l.9-.2h1c.3,0,.5,0,.6.2l1-.2h1c.5,0,.7.2.7.6v4.8Z" transform="translate(11.9 59.3)"/><path class="cls-18" d="M240,24.6V23.3h-1.3v1.3Zm1.3,2.5a.7.7,0,0,1-.8.7h-2.3a.6.6,0,0,1-.7-.7V23c0-.4.2-.6.7-.6h2.3c.5,0,.8.2.8.6v2l-.4.3h-2.2v1.6H240V26h1.3v1.1Z" transform="translate(11.9 59.3)"/><path class="cls-6" d="M215.9,48.8l-.3.6.9.6.4-.5Z" transform="translate(11.9 59.3)"/><path class="cls-6" d="M225.3,48.8l-.3.6.8.6.5-.5Z" transform="translate(11.9 59.3)"/><path class="cls-6" d="M223.6,45.2h-27v.6H200l-1.6.7-1.5.8.2.8a2.9,2.9,0,0,1,1.6.6,3.3,3.3,0,0,1,1.4,1.1h.6v-4h1a2.6,2.6,0,0,0-.3,1,2.2,2.2,0,0,0,.3,1,2.4,2.4,0,0,1,.2,1c0,.3-.2.4-.6.5V50c.4-.1.7-.1.9-.3a.7.7,0,0,0,.5-.8,2.6,2.6,0,0,0-.2-1.1,3,3,0,0,1-.3-1.1,1.6,1.6,0,0,1,.4-.9h.8v4h.7v-4h1.6a2.8,2.8,0,0,0-.7,1.1,1.7,1.7,0,0,0-.4,1.1,2.9,2.9,0,0,0,.7,1.8,1.7,1.7,0,0,0,1.2.3h.5v-.2a3.3,3.3,0,0,0,1.5-.5,2.2,2.2,0,0,0,1.1-1.9c-.1-.3-.4-.5-.7-.8a.7.7,0,0,1-.6.2,1.4,1.4,0,0,1-1.1-.6v-.4h6.4v1.3a.5.5,0,0,0-.5-.3,1.2,1.2,0,0,0-.9.6,1.1,1.1,0,0,0-.9-.6,1.3,1.3,0,0,0-1,.4,1.8,1.8,0,0,0,0,2,1.4,1.4,0,0,0,1,.5h.3l.2-.7h-.3c-.5,0-.8-.2-.8-.6s.2-.8.6-.8a.5.5,0,0,1,.4.3.9.9,0,0,1,.1.5h.8a.6.6,0,0,1,.1-.4c.1-.2.2-.3.4-.3s.6.4.6,1.3v.4a1.8,1.8,0,0,0-.1.5h.7v-4h3.5a18,18,0,0,0-3.1,1.5l.2.8a3.5,3.5,0,0,1,1.7.6,3.6,3.6,0,0,1,1.3,1.1h.6v-4h1.4a4.9,4.9,0,0,0-.7,1.1,2.3,2.3,0,0,0-.3,1.1,2.8,2.8,0,0,0,.6,1.8,1.7,1.7,0,0,0,1.2.3h.5v-.8l-.5.2a1,1,0,0,1-.9-.4c-.2-.2-.2-.6-.2-1.1a1.6,1.6,0,0,1,.5-1.2,1,1,0,0,1,.5-.6v2l.5.5a7,7,0,0,1,1.8-1.3,7.6,7.6,0,0,0-.1,1.5A4.9,4.9,0,0,0,223,50l.6-.3a3,3,0,0,1-.3-1.2,4.1,4.1,0,0,1,.4-1.5l-.6-.7a7,7,0,0,0-1.9,1V45.8H227a18,18,0,0,0-3.1,1.5l.2.8a3.5,3.5,0,0,1,1.7.6,3.6,3.6,0,0,1,1.3,1.1h.6v-4h.4v-.6h-4.5ZM200,48.7a7.6,7.6,0,0,0-1.9-1.2,8.7,8.7,0,0,1,1.9-.8Zm5.5.3a1.6,1.6,0,0,1-.3-1.1,2.1,2.1,0,0,1,.5-1.2l.7-.7v3.4C206,49.4,205.6,49.3,205.5,49Zm2.5-1.5h.8a1.2,1.2,0,0,1-.6,1,1.5,1.5,0,0,1-1.1.4V47.1A1.2,1.2,0,0,0,208,47.5Zm9.7,1.2a5.2,5.2,0,0,0-1.9-1.1,6.6,6.6,0,0,1,1.9-.9Zm9.3,0a5.2,5.2,0,0,0-1.9-1.1,6.6,6.6,0,0,1,1.9-.9Z" transform="translate(11.9 59.3)"/><path class="cls-6" d="M239.6,45.2h-9.9v.6h3.4l-1.6.7-1.5.8.2.8a3.5,3.5,0,0,1,1.7.6,3.6,3.6,0,0,1,1.3,1.1h.6v-4h.8v4h.7v-4h.6a1.9,1.9,0,0,1,1.1,1.6,2.5,2.5,0,0,1-.2.7c-.2.3-.3.4-.5.4a.9.9,0,0,1-.6-.4v.8l.7.3a.8.8,0,0,0,.8-.5l.4-.8c.2-.5.4-.7.6-.7a.2.2,0,0,1,.2.2.4.4,0,0,1,.1.3v2.1h.7v-4h.8v4h.7v-4h.6v-.6Zm-6.5,3.5a6.2,6.2,0,0,0-1.9-1.2l1.9-.8Zm5.4-2a.5.5,0,0,0-.4-.2c-.2,0-.3.1-.5.3a2.1,2.1,0,0,0-.6-1h1.5Z" transform="translate(11.9 59.3)"/><g class="cls-19"><g class="cls-20"><rect class="cls-21" x="12.3" y="0.5" width="283.8" height="282.02"/></g><g class="cls-22"><polygon class="cls-23" points="201.5 183.1 207.5 172.6 219.6 172.6 225.6 183.1 219.6 193.6 207.5 193.6 201.5 183.1"/><polygon class="cls-24" points="201.5 183.1 207.5 172.6 219.6 172.6 207.5 193.6 201.5 183.1"/><polygon class="cls-24" points="201.5 183.1 219.6 193.6 207.5 193.6 201.5 183.1"/><polygon class="cls-24" points="207.5 172.6 219.6 172.6 213.6 183.1 207.5 172.6"/></g><g class="cls-22"><polygon class="cls-25" points="183.5 193.6 189.5 183.1 201.5 183.1 207.5 193.6 201.5 204.1 189.5 204.1 183.5 193.6"/><polygon class="cls-24" points="183.5 193.6 189.5 183.1 201.5 183.1 189.5 204.1 183.5 193.6"/><polygon class="cls-24" points="183.5 193.6 201.5 204.1 189.5 204.1 183.5 193.6"/><polygon class="cls-24" points="189.5 183.1 201.5 183.1 195.5 193.6 189.5 183.1"/></g><g class="cls-22"><polygon class="cls-26" points="143.7 216.7 157 193.6 183.5 193.6 196.7 216.7 183.5 239.9 157 239.9 143.7 216.7"/><polygon class="cls-24" points="143.7 216.7 157 193.6 183.5 193.6 157 239.9 143.7 216.7"/><polygon class="cls-24" points="143.7 216.7 183.5 239.9 157 239.9 143.7 216.7"/><polygon class="cls-24" points="157 193.6 183.5 193.6 170.2 216.7 157 193.6"/></g><polygon class="cls-27" points="241.7 204.2 251.7 221.8 271.9 221.8 282 204.2 271.9 186.6 251.7 186.6 241.7 204.2"/><polygon class="cls-24" points="241.7 204.2 251.7 221.8 271.9 221.8 251.7 186.6 241.7 204.2"/><polygon class="cls-24" points="241.7 204.2 271.9 186.6 251.7 186.6 241.7 204.2"/><polygon class="cls-24" points="251.7 221.8 271.9 221.8 261.8 204.2 251.7 221.8"/><polygon class="cls-28" points="211.4 186.6 221.5 204.2 241.7 204.2 251.7 186.6 241.7 169 221.5 169 211.4 186.6"/><polygon class="cls-24" points="211.4 186.6 221.5 204.2 241.7 204.2 221.5 169 211.4 186.6"/><polygon class="cls-24" points="211.4 186.6 241.7 169 221.5 169 211.4 186.6"/><polygon class="cls-24" points="221.5 204.2 241.7 204.2 231.6 186.6 221.5 204.2"/><polygon class="cls-29" points="197.2 204.2 203.3 214.8 215.4 214.8 221.5 204.2 215.4 193.6 203.3 193.6 197.2 204.2"/><polygon class="cls-24" points="197.2 204.2 203.3 214.8 215.4 214.8 203.3 193.6 197.2 204.2"/><polygon class="cls-24" points="197.2 204.2 215.4 193.6 203.3 193.6 197.2 204.2"/><polygon class="cls-24" points="203.3 214.8 215.4 214.8 209.3 204.2 203.3 214.8"/><g class="cls-22"><polygon class="cls-30" points="46.7 77.4 39.2 64.3 24.1 64.3 16.6 77.4 24.1 90.6 39.2 90.6 46.7 77.4"/><polygon class="cls-24" points="46.7 77.4 39.2 64.3 24.1 64.3 39.2 90.6 46.7 77.4"/><polygon class="cls-24" points="46.7 77.4 24.1 90.6 39.2 90.6 46.7 77.4"/><polygon class="cls-24" points="39.2 64.3 24.1 64.3 31.6 77.4 39.2 64.3"/></g><g class="cls-22"><polygon class="cls-31" points="25.3 92.6 19.6 82.6 8.2 82.6 2.5 92.6 8.2 102.5 19.6 102.5 25.3 92.6"/><polygon class="cls-24" points="25.3 92.6 19.6 82.6 8.2 82.6 19.6 102.5 25.3 92.6"/><polygon class="cls-24" points="25.3 92.6 8.2 102.5 19.6 102.5 25.3 92.6"/><polygon class="cls-24" points="19.6 82.6 8.2 82.6 13.9 92.6 19.6 82.6"/></g><polygon class="cls-32" points="0 43.2 7.5 56.3 22.6 56.3 30.1 43.2 22.6 30.1 7.5 30.1 0 43.2"/><polygon class="cls-24" points="0 43.2 7.5 56.3 22.6 56.3 7.5 30.1 0 43.2"/><polygon class="cls-24" points="0 43.2 22.6 30.1 7.5 30.1 0 43.2"/><polygon class="cls-24" points="7.5 56.3 22.6 56.3 15 43.2 7.5 56.3"/><polygon class="cls-33" points="0 69.5 7.5 82.6 22.6 82.6 30.1 69.5 22.6 56.3 7.5 56.3 0 69.5"/><polygon class="cls-24" points="0 69.5 7.5 82.6 22.6 82.6 7.5 56.3 0 69.5"/><polygon class="cls-24" points="0 69.5 22.6 56.3 7.5 56.3 0 69.5"/><polygon class="cls-24" points="7.5 82.6 22.6 82.6 15 69.5 7.5 82.6"/><polygon class="cls-34" points="22.6 56.3 27.1 64.3 36.2 64.3 40.7 56.3 36.2 48.4 27.1 48.4 22.6 56.3"/><polygon class="cls-24" points="22.6 56.3 27.1 64.3 36.2 64.3 27.1 48.4 22.6 56.3"/><polygon class="cls-24" points="22.6 56.3 36.2 48.4 27.1 48.4 22.6 56.3"/><polygon class="cls-24" points="27.1 64.3 36.2 64.3 31.6 56.3 27.1 64.3"/></g></g></g></svg>