<svg xmlns="http://www.w3.org/2000/svg" xmlns:xlink="http://www.w3.org/1999/xlink" viewBox="0 0 299.6 283"><defs><style>.cls-1{mask:url(#mask);}.cls-10,.cls-2{mix-blend-mode:multiply;}.cls-2{fill:url(#linear-gradient);}.cls-3{fill:none;}.cls-4{isolation:isolate;}.cls-5{clip-path:url(#clip-path);}.cls-6{mask:url(#mask-2);}.cls-7{stroke-miterlimit:10;fill:url(#linear-gradient-2);stroke:url(#linear-gradient-3);}.cls-8{opacity:0.3;}.cls-9{fill:url(#linear-gradient-4);}.cls-10{fill:#2ba9e0;opacity:0.7;}.cls-11{fill:url(#linear-gradient-5);}.cls-12{fill:url(#linear-gradient-6);}.cls-13{fill:url(#linear-gradient-7);}.cls-14{fill:url(#linear-gradient-8);}.cls-15{fill:url(#linear-gradient-9);}.cls-16{fill:url(#linear-gradient-10);}.cls-17{fill:url(#linear-gradient-11);}.cls-18{fill:url(#linear-gradient-12);}.cls-19{fill:url(#linear-gradient-13);}.cls-20{fill:url(#linear-gradient-14);}.cls-21{fill:#344ea2;}.cls-22{fill:#fff;}.cls-23{fill:#ed2224;}.cls-24{fill:#010101;}.cls-25{fill:#2c8ecd;}.cls-26{fill:#d02629;}.cls-27{fill:#a11f61;}.cls-28{fill:#188f46;}.cls-29{fill:#e6aa32;}.cls-30{fill:#0795cb;}.cls-31{fill:#d62a28;}.cls-32{fill:#009a4b;}.cls-33{fill:#eb9d26;}.cls-34{fill:#281611;}.cls-35{filter:url(#luminosity-noclip-2);}.cls-36{filter:url(#luminosity-noclip);}</style><filter id="luminosity-noclip" x="-14.4" y="-8262.41" width="298.61" height="32766" filterUnits="userSpaceOnUse" color-interpolation-filters="sRGB"><feFlood flood-color="#fff" result="bg"/><feBlend in="SourceGraphic" in2="bg"/></filter><mask id="mask" x="-14.4" y="-8262.41" width="298.61" height="32766" maskUnits="userSpaceOnUse"><g class="cls-36"/></mask><linearGradient id="linear-gradient" x1="1067.85" y1="-1074.85" x2="1067.85" y2="-787.22" gradientTransform="translate(-932.9 1011)" gradientUnits="userSpaceOnUse"><stop offset="0" stop-color="#fff"/><stop offset="0.45" stop-color="#fdfdfd"/><stop offset="0.61" stop-color="#f6f6f6"/><stop offset="0.72" stop-color="#ebebeb"/><stop offset="0.82" stop-color="#dadada"/><stop offset="0.9" stop-color="#c4c4c4"/><stop offset="0.97" stop-color="#a9a9a9"/><stop offset="1" stop-color="#999"/></linearGradient><clipPath id="clip-path" transform="translate(14.9 59.3)"><rect class="cls-3" width="252" height="144"/></clipPath><filter id="luminosity-noclip-2" x="-14.9" y="-59.28" width="299.61" height="283.02" filterUnits="userSpaceOnUse" color-interpolation-filters="sRGB"><feFlood flood-color="#fff" result="bg"/><feBlend in="SourceGraphic" in2="bg"/></filter><mask id="mask-2" x="0" y="0" width="299.61" height="283.02" maskUnits="userSpaceOnUse"><g class="cls-35"><g transform="translate(14.9 59.3)"><g class="cls-1"><rect class="cls-2" x="-14.4" y="-58.8" width="298.6" height="282.02"/></g></g></g></mask><linearGradient id="linear-gradient-2" x1="1067.85" y1="-1074.85" x2="1067.85" y2="-787.22" gradientTransform="translate(-918 1070.2)" gradientUnits="userSpaceOnUse"><stop offset="0" stop-color="#fff" stop-opacity="0"/><stop offset="0.12" stop-color="#d4eff5" stop-opacity="0.18"/><stop offset="0.32" stop-color="#90d5e5" stop-opacity="0.47"/><stop offset="0.51" stop-color="#59c1d9" stop-opacity="0.7"/><stop offset="0.68" stop-color="#32b2d0" stop-opacity="0.86"/><stop offset="0.82" stop-color="#1ba9ca" stop-opacity="0.96"/><stop offset="0.91" stop-color="#12a6c8"/></linearGradient><linearGradient id="linear-gradient-3" y1="141.51" x2="299.61" y2="141.51" gradientUnits="userSpaceOnUse"><stop offset="0" stop-color="#fff"/><stop offset="1"/></linearGradient><linearGradient id="linear-gradient-4" x1="-675.03" y1="57.25" x2="-675.03" y2="78.68" gradientTransform="translate(-458.4 251.1) rotate(180)" gradientUnits="userSpaceOnUse"><stop offset="0" stop-color="#2ba9e0"/><stop offset="0.25" stop-color="#28a3dc"/><stop offset="0.56" stop-color="#2094d1"/><stop offset="0.91" stop-color="#1379bf"/><stop offset="1" stop-color="#0f72ba"/></linearGradient><linearGradient id="linear-gradient-5" x1="-656.98" y1="46.74" x2="-656.98" y2="68.17" xlink:href="#linear-gradient-4"/><linearGradient id="linear-gradient-6" x1="-631.68" y1="10.68" x2="-631.68" y2="57.85" xlink:href="#linear-gradient-4"/><linearGradient id="linear-gradient-7" x1="-1041.75" y1="-884.06" x2="-1041.75" y2="-848.16" gradientTransform="matrix(-1, 0, 0, 1, -776.87, 1070.23)" xlink:href="#linear-gradient-4"/><linearGradient id="linear-gradient-8" x1="-1011.5" y1="-901.67" x2="-1011.5" y2="-865.77" gradientTransform="matrix(-1, 0, 0, 1, -776.87, 1070.23)" xlink:href="#linear-gradient-4"/><linearGradient id="linear-gradient-9" x1="-989.26" y1="-876.9" x2="-989.26" y2="-855.25" gradientTransform="matrix(-1, 0, 0, 1, -776.87, 1070.23)" xlink:href="#linear-gradient-4"/><linearGradient id="linear-gradient-10" x1="708.24" y1="160.22" x2="708.24" y2="187.01" gradientTransform="matrix(1, 0, 0, -1, -673.54, 251.09)" xlink:href="#linear-gradient-4"/><linearGradient id="linear-gradient-11" x1="690.49" y1="148.35" x2="690.49" y2="168.61" gradientTransform="matrix(1, 0, 0, -1, -673.54, 251.09)" xlink:href="#linear-gradient-4"/><linearGradient id="linear-gradient-12" x1="-794.97" y1="-1040.48" x2="-794.97" y2="-1013.7" gradientTransform="matrix(-1, 0, 0, 1, -776.87, 1070.23)" xlink:href="#linear-gradient-4"/><linearGradient id="linear-gradient-13" x1="-794.97" y1="-1014.2" x2="-794.97" y2="-987.41" gradientTransform="matrix(-1, 0, 0, 1, -776.87, 1070.23)" xlink:href="#linear-gradient-4"/><linearGradient id="linear-gradient-14" x1="-811.57" y1="-1022" x2="-811.57" y2="-1005.85" gradientTransform="matrix(-1, 0, 0, 1, -776.87, 1070.23)" xlink:href="#linear-gradient-4"/></defs><title>visiting-card</title><g class="cls-4"><g id="Layer_1" data-name="Layer 1"><g class="cls-5"><g class="cls-6"><rect class="cls-7" x="0.5" y="0.5" width="298.6" height="282.02"/></g><g class="cls-8"><polygon class="cls-9" points="204.6 183.1 210.6 172.6 222.6 172.6 228.6 183.1 222.6 193.6 210.6 193.6 204.6 183.1"/><polygon class="cls-10" points="204.6 183.1 210.6 172.6 222.6 172.6 210.6 193.6 204.6 183.1"/><polygon class="cls-10" points="204.6 183.1 222.6 193.6 210.6 193.6 204.6 183.1"/><polygon class="cls-10" points="210.6 172.6 222.6 172.6 216.6 183.1 210.6 172.6"/></g><g class="cls-8"><polygon class="cls-11" points="186.5 193.6 192.5 183.1 204.6 183.1 210.6 193.6 204.6 204.1 192.5 204.1 186.5 193.6"/><polygon class="cls-10" points="186.5 193.6 192.5 183.1 204.6 183.1 192.5 204.1 186.5 193.6"/><polygon class="cls-10" points="186.5 193.6 204.6 204.1 192.5 204.1 186.5 193.6"/><polygon class="cls-10" points="192.5 183.1 204.6 183.1 198.6 193.6 192.5 183.1"/></g><g class="cls-8"><polygon class="cls-12" points="146.8 216.7 160 193.6 186.5 193.6 199.8 216.7 186.5 239.9 160 239.9 146.8 216.7"/><polygon class="cls-10" points="146.8 216.7 160 193.6 186.5 193.6 160 239.9 146.8 216.7"/><polygon class="cls-10" points="146.8 216.7 186.5 239.9 160 239.9 146.8 216.7"/><polygon class="cls-10" points="160 193.6 186.5 193.6 173.3 216.7 160 193.6"/></g><polygon class="cls-13" points="244.7 204.2 254.8 221.8 275 221.8 285 204.2 275 186.6 254.8 186.6 244.7 204.2"/><polygon class="cls-10" points="244.7 204.2 254.8 221.8 275 221.8 254.8 186.6 244.7 204.2"/><polygon class="cls-10" points="244.7 204.2 275 186.6 254.8 186.6 244.7 204.2"/><polygon class="cls-10" points="254.8 221.8 275 221.8 264.9 204.2 254.8 221.8"/><polygon class="cls-14" points="214.5 186.6 224.6 204.2 244.7 204.2 254.8 186.6 244.7 169 224.6 169 214.5 186.6"/><polygon class="cls-10" points="214.5 186.6 224.6 204.2 244.7 204.2 224.6 169 214.5 186.6"/><polygon class="cls-10" points="214.5 186.6 244.7 169 224.6 169 214.5 186.6"/><polygon class="cls-10" points="224.6 204.2 244.7 204.2 234.6 186.6 224.6 204.2"/><polygon class="cls-15" points="200.2 204.2 206.3 214.8 218.5 214.8 224.6 204.2 218.5 193.6 206.3 193.6 200.2 204.2"/><polygon class="cls-10" points="200.2 204.2 206.3 214.8 218.5 214.8 206.3 193.6 200.2 204.2"/><polygon class="cls-10" points="200.2 204.2 218.5 193.6 206.3 193.6 200.2 204.2"/><polygon class="cls-10" points="206.3 214.8 218.5 214.8 212.4 204.2 206.3 214.8"/><g class="cls-8"><polygon class="cls-16" points="49.7 77.4 42.2 64.3 27.2 64.3 19.6 77.4 27.2 90.6 42.2 90.6 49.7 77.4"/><polygon class="cls-10" points="49.7 77.4 42.2 64.3 27.2 64.3 42.2 90.6 49.7 77.4"/><polygon class="cls-10" points="49.7 77.4 27.2 90.6 42.2 90.6 49.7 77.4"/><polygon class="cls-10" points="42.2 64.3 27.2 64.3 34.7 77.4 42.2 64.3"/></g><g class="cls-8"><polygon class="cls-17" points="28.3 92.6 22.6 82.6 11.3 82.6 5.6 92.6 11.3 102.5 22.6 102.5 28.3 92.6"/><polygon class="cls-10" points="28.3 92.6 22.6 82.6 11.3 82.6 22.6 102.5 28.3 92.6"/><polygon class="cls-10" points="28.3 92.6 11.3 102.5 22.6 102.5 28.3 92.6"/><polygon class="cls-10" points="22.6 82.6 11.3 82.6 16.9 92.6 22.6 82.6"/></g><polygon class="cls-18" points="3.1 43.2 10.6 56.3 25.6 56.3 33.1 43.2 25.6 30.1 10.6 30.1 3.1 43.2"/><polygon class="cls-10" points="3.1 43.2 10.6 56.3 25.6 56.3 10.6 30.1 3.1 43.2"/><polygon class="cls-10" points="3.1 43.2 25.6 30.1 10.6 30.1 3.1 43.2"/><polygon class="cls-10" points="10.6 56.3 25.6 56.3 18.1 43.2 10.6 56.3"/><polygon class="cls-19" points="3.1 69.5 10.6 82.6 25.6 82.6 33.1 69.5 25.6 56.3 10.6 56.3 3.1 69.5"/><polygon class="cls-10" points="3.1 69.5 10.6 82.6 25.6 82.6 10.6 56.3 3.1 69.5"/><polygon class="cls-10" points="3.1 69.5 25.6 56.3 10.6 56.3 3.1 69.5"/><polygon class="cls-10" points="10.6 82.6 25.6 82.6 18.1 69.5 10.6 82.6"/><polygon class="cls-20" points="25.6 56.3 30.2 64.3 39.2 64.3 43.8 56.3 39.2 48.4 30.2 48.4 25.6 56.3"/><polygon class="cls-10" points="25.6 56.3 30.2 64.3 39.2 64.3 30.2 48.4 25.6 56.3"/><polygon class="cls-10" points="25.6 56.3 39.2 48.4 30.2 48.4 25.6 56.3"/><polygon class="cls-10" points="30.2 64.3 39.2 64.3 34.7 56.3 30.2 64.3"/></g><path class="cls-21" d="M25.8,10.6h2.1l3.3,8.2h.1l1.6-8.2h1.9l-2.2,11H30.5l-3.4-8.2h0l-1.7,8.2H23.5Z" transform="translate(14.9 59.3)"/><path class="cls-22" d="M33.6,22.8h-4l-2.1-5.2-1.1,5.2H22L24.7,9.3h4l2.1,5.3,1.1-5.3h4.5Zm-2.3-2.5h.3V20h-.4Zm-4.6-8.1h.5l-.2-.4h-.2Z" transform="translate(14.9 59.3)"/><path class="cls-21" d="M42,19.1a3.3,3.3,0,0,1-1.4,2,4,4,0,0,1-2.4.7,3.2,3.2,0,0,1-1.4-.3,2.6,2.6,0,0,1-1.1-.7,2.1,2.1,0,0,1-.7-1.1,3.2,3.2,0,0,1-.3-1.4,5.7,5.7,0,0,1,.3-1.8,5.1,5.1,0,0,1,.9-1.6,4.7,4.7,0,0,1,1.3-1.1,4.1,4.1,0,0,1,1.9-.4,4,4,0,0,1,1.7.3,5.3,5.3,0,0,1,1.1.9,6.1,6.1,0,0,1,.5,1.2,6.2,6.2,0,0,1,.1,1.3v.5a.8.8,0,0,0-.1.4H36.5v.5a2.1,2.1,0,0,0,.4,1.4,2.1,2.1,0,0,0,1.5.5,2.7,2.7,0,0,0,1.2-.3,3.6,3.6,0,0,0,.7-1Zm-1.3-2.2v-.5a1.4,1.4,0,0,0-1.6-1.6,2.1,2.1,0,0,0-1.6.6,2.8,2.8,0,0,0-.8,1.5Z" transform="translate(14.9 59.3)"/><path class="cls-22" d="M38.2,23a4.8,4.8,0,0,1-1.8-.3,5.4,5.4,0,0,1-1.6-1,5.6,5.6,0,0,1-1-1.5,5.8,5.8,0,0,1-.3-1.9,7.8,7.8,0,0,1,.3-2.2,7.8,7.8,0,0,1,1.1-2,8.6,8.6,0,0,1,1.8-1.4,4.7,4.7,0,0,1,2.4-.5,4.1,4.1,0,0,1,2.3.5,4.4,4.4,0,0,1,1.5,1.2,5.1,5.1,0,0,1,.7,1.7,7.6,7.6,0,0,1,.1,1.5v.6a.7.7,0,0,1-.1.5v1.1h-.3a4.9,4.9,0,0,1-1.9,2.8A6.2,6.2,0,0,1,38.2,23Z" transform="translate(14.9 59.3)"/><path class="cls-21" d="M43.5,13.6h1.8l.5,5.7h.1l2.6-5.7h1.8l.4,5.7h0l2.8-5.7h1.8l-4.1,8H49.3L49,15.8h0l-2.7,5.8H44.5Z" transform="translate(14.9 59.3)"/><polygon class="cls-22" points="66.8 82.1 63.1 82.1 62.9 80 62 82.1 58.3 82.1 57.1 71.6 61.4 71.6 61.6 73.9 62.6 71.6 66.4 71.6 66.5 73.8 67.6 71.6 72.2 71.6 66.8 82.1"/><path class="cls-21" d="M61.9,19.2a.9.9,0,0,1-.1.5V20a.4.4,0,0,0,.1.3h.9l-.3,1.3H61.1a1,1,0,0,1-1-1,3.3,3.3,0,0,1-1.3.7,3.2,3.2,0,0,1-1.4.3l-.9-.2a2,2,0,0,1-.8-.4,1.2,1.2,0,0,1-.6-.6,3,3,0,0,1-.2-1,2.4,2.4,0,0,1,.3-1.2,2.7,2.7,0,0,1,.7-.8l1.1-.5,1.2-.2H60a1.1,1.1,0,0,0,.7-.3,1.9,1.9,0,0,0,.2-.8.7.7,0,0,0-.4-.7,1.3,1.3,0,0,0-.9-.2l-1.3.2a1.5,1.5,0,0,0-.7,1H55.9a3.3,3.3,0,0,1,.5-1.2,2.4,2.4,0,0,1,.9-.8l1.1-.5h1.3l1.7.2a1.9,1.9,0,0,1,.9.5.9.9,0,0,1,.3.6,1.1,1.1,0,0,1,.1.5,5,5,0,0,1-.2,1.2Zm-5.2.2a.9.9,0,0,0,.1.5l.3.3h1l1-.2.8-.6a2.5,2.5,0,0,0,.4-.9l.3-1.1h-.1l-.5.3H58.6l-.9.2-.7.4A1,1,0,0,0,56.7,19.4Z" transform="translate(14.9 59.3)"/><path class="cls-22" d="M61.1,23a2.4,2.4,0,0,1-1.4-.5l-.5.2a5.7,5.7,0,0,1-1.8.3l-1.3-.2a3.4,3.4,0,0,1-1.2-.6,2.4,2.4,0,0,1-.9-1.1,3.3,3.3,0,0,1-.3-1.5,3.4,3.4,0,0,1,.4-1.8,1,1,0,0,1,.4-.5h0l.2-1.5a6.7,6.7,0,0,1,.7-1.7,3.4,3.4,0,0,1,1.2-1.2,3.9,3.9,0,0,1,1.5-.6h1.6a6.5,6.5,0,0,1,2.1.2,4.7,4.7,0,0,1,1.4.8h0a3.1,3.1,0,0,1,.6,1.3h0a2,2,0,0,1,.1.7,4.1,4.1,0,0,1-.2,1.5L63.3,19h1l-.8,3.7-.7.2H61.1Z" transform="translate(14.9 59.3)"/><path class="cls-21" d="M64,13.6h1.9l.8,5.8h0l3-5.8h1.9l-4.5,8.2-.6,1.1-.7.9a2.2,2.2,0,0,1-.9.7l-1.2.2H62.6l.3-1.5h1.4a1,1,0,0,0,.4-.5l.7-1.3Z" transform="translate(14.9 59.3)"/><path class="cls-22" d="M63.7,25.9H62.4l-1.3-.3.9-3.9,1.3.3h.3l.5-.9-1.5-8.7H67l.4,3,1.6-3h4.7l-5.5,10a3,3,0,0,0-.6,1.1l-.9,1.2a4.3,4.3,0,0,1-1.3.9A4.7,4.7,0,0,1,63.7,25.9Z" transform="translate(14.9 59.3)"/><path class="cls-21" d="M76.7,15.9c0-.4-.1-.7-.4-.8a2.1,2.1,0,0,0-1.2-.3h-.5l-.4.2-.3.3a.7.7,0,0,0-.1.5c0,.2,0,.3.2.4l.5.3.8.3.8.2.7.3.6.5a1,1,0,0,1,.4.5,2.5,2.5,0,0,1,.1.9,2,2,0,0,1-.3,1.1,2.3,2.3,0,0,1-.8.9l-1.1.4-1.3.2-1.3-.2a1.8,1.8,0,0,1-1-.4,2.2,2.2,0,0,1-.7-.9,2.5,2.5,0,0,1-.3-1.3h1.7c0,.2,0,.5.1.6a1,1,0,0,0,.4.5l.5.2h1.8a.8.8,0,0,0,.4-.4.8.8,0,0,0,.2-.6c0-.2-.1-.3-.2-.5l-.6-.3-.8-.3c-.3-.1-.6-.1-.8-.3l-.7-.2-.6-.4c-.1-.2-.3-.4-.3-.6a1.9,1.9,0,0,1-.2-.8,2,2,0,0,1,.3-1.1L73,14l1.1-.5h2.4l1,.4a2.7,2.7,0,0,1,.7.8,3.7,3.7,0,0,1,.2,1.2Z" transform="translate(14.9 59.3)"/><path class="cls-22" d="M74.4,23a3.9,3.9,0,0,1-1.5-.2,3.4,3.4,0,0,1-1.5-.6,2.8,2.8,0,0,1-1.1-1.3,3.8,3.8,0,0,1-.4-1.9V17.8h1.6l-.4-.7a5.1,5.1,0,0,1-.2-1.3,3.3,3.3,0,0,1,.4-1.7,3.4,3.4,0,0,1,1.2-1.2,3.5,3.5,0,0,1,1.4-.6h2.9a3.4,3.4,0,0,1,1.5.6,2.8,2.8,0,0,1,1.1,1.3,4.8,4.8,0,0,1,.3,1.8v1.2H78.5a2.1,2.1,0,0,1,.4.6,3.2,3.2,0,0,1,.3,1.4,3.5,3.5,0,0,1-1.7,3,3.4,3.4,0,0,1-1.5.6Z" transform="translate(14.9 59.3)"/><path class="cls-21" d="M80.9,13.5h.9l.3-.2v-.4a.5.5,0,0,0-.3-.5l-.5-.2a.7.7,0,0,0-.6.3.6.6,0,0,0-.3.6h-.8c.1-.2.1-.4.2-.6a1,1,0,0,1,.4-.5.5.5,0,0,1,.5-.3l.7-.2h.6l.4.2.3.4a.9.9,0,0,1,.1.5,1.1,1.1,0,0,1-.2.8l-.6.4h0a.8.8,0,0,1,.4.4,1.4,1.4,0,0,1,.2.6,1.4,1.4,0,0,1-.2.7,1,1,0,0,1-.4.5l-.6.3h-.8a1.5,1.5,0,0,1-1-.3,1.4,1.4,0,0,1-.5-1v-.2H80a1.4,1.4,0,0,0,.2.6l.7.2a1,1,0,0,0,1-1c0-.2,0-.3-.1-.4l-.2-.2h-.8Z" transform="translate(14.9 59.3)"/><path class="cls-22" d="M80.7,17.7a3.2,3.2,0,0,1-1.9-.7,2.6,2.6,0,0,1-.8-1.9v-.3h0V13.5h.3v-.7l.3-1a2.7,2.7,0,0,1,.7-.8,1.5,1.5,0,0,1,.9-.6l1.1-.2h.9l.8.4a2.7,2.7,0,0,1,.7.8,2.3,2.3,0,0,1,.3,1.1,3.3,3.3,0,0,1-.4,1.4,2.2,2.2,0,0,1,.1.8,2.8,2.8,0,0,1-.3,1.3,3.2,3.2,0,0,1-.8.9,2.3,2.3,0,0,1-1,.5Z" transform="translate(14.9 59.3)"/><path class="cls-21" d="M25.8,10.6h2.1l3.3,8.2h.1l1.6-8.2h1.9l-2.2,11H30.5l-3.4-8.2h0l-1.7,8.2H23.5Z" transform="translate(14.9 59.3)"/><path class="cls-22" d="M32.6,21.6H30.5l-3.4-8.2h0l-1.7,8.2H23.5l2.2-11h2.2l3.3,8.2h0l1.7-8.2h2Zm-2.1-.1h2.1l2.2-10.9H32.9l-1.6,8.2h-.1l-3.3-8.2H25.8L23.5,21.5h1.9l1.7-8.1h0Z" transform="translate(14.9 59.3)"/><path class="cls-23" d="M42,19.1a3.3,3.3,0,0,1-1.4,2,4,4,0,0,1-2.4.7,3.2,3.2,0,0,1-1.4-.3,2.6,2.6,0,0,1-1.1-.7,2.1,2.1,0,0,1-.7-1.1,3.2,3.2,0,0,1-.3-1.4,5.7,5.7,0,0,1,.3-1.8,5.1,5.1,0,0,1,.9-1.6,4.7,4.7,0,0,1,1.3-1.1,4.1,4.1,0,0,1,1.9-.4,4,4,0,0,1,1.7.3,5.3,5.3,0,0,1,1.1.9,6.1,6.1,0,0,1,.5,1.2,6.2,6.2,0,0,1,.1,1.3v.5a.8.8,0,0,0-.1.4H36.5v.5a2.1,2.1,0,0,0,.4,1.4,2.1,2.1,0,0,0,1.5.5,2.7,2.7,0,0,0,1.2-.3,3.6,3.6,0,0,0,.7-1Zm-1.3-2.2v-.5a1.4,1.4,0,0,0-1.6-1.6,2.1,2.1,0,0,0-1.6.6,2.8,2.8,0,0,0-.8,1.5Z" transform="translate(14.9 59.3)"/><path class="cls-22" d="M38.2,21.8a3.2,3.2,0,0,1-1.4-.3,2.6,2.6,0,0,1-1.1-.7,2.3,2.3,0,0,1-.7-1,4,4,0,0,1-.3-1.5,5.7,5.7,0,0,1,.3-1.8,8,8,0,0,1,.8-1.6l1.4-1.1a4.1,4.1,0,0,1,1.9-.4,4,4,0,0,1,1.7.3,5.3,5.3,0,0,1,1.1.9,6.1,6.1,0,0,1,.5,1.2,5.7,5.7,0,0,1,.1,1.3v.5c0,.2-.1.3-.1.4H36.5v.5a2.1,2.1,0,0,0,.4,1.4,2.1,2.1,0,0,0,1.5.5,1.9,1.9,0,0,0,1.2-.4,1.5,1.5,0,0,0,.6-.9H42a3.3,3.3,0,0,1-1.4,2A4,4,0,0,1,38.2,21.8Zm.9-8.4a4.1,4.1,0,0,0-1.9.4,4.7,4.7,0,0,0-1.3,1.1,5.1,5.1,0,0,0-.9,1.6,5.7,5.7,0,0,0-.3,1.8,3.2,3.2,0,0,0,.3,1.4,3,3,0,0,0,.7,1.1,2.6,2.6,0,0,0,1.1.7,3.2,3.2,0,0,0,1.4.3,4.8,4.8,0,0,0,2.4-.7,3.3,3.3,0,0,0,1.4-2H40.3a3.6,3.6,0,0,1-.7,1,2.7,2.7,0,0,1-1.2.3,2.1,2.1,0,0,1-1.5-.5,2.1,2.1,0,0,1-.4-1.4V18h5.9a.8.8,0,0,1,.1-.4v-.5c0-.4-.1-.8-.1-1.3a6.1,6.1,0,0,0-.5-1.2,3.1,3.1,0,0,0-1.1-.8A2.9,2.9,0,0,0,39.1,13.4Zm1.6,3.5h-4a2.8,2.8,0,0,1,.8-1.5,2.1,2.1,0,0,1,1.6-.6,1.6,1.6,0,0,1,1.2.4,1.7,1.7,0,0,1,.5,1.2v.2a.4.4,0,0,1-.1.3Zm-4,0h4v-.5a1.4,1.4,0,0,0-1.6-1.6,2.1,2.1,0,0,0-1.6.6A2.8,2.8,0,0,0,36.7,16.9Z" transform="translate(14.9 59.3)"/><path class="cls-21" d="M43.5,13.6h1.8l.5,5.7h.1l2.6-5.7h1.8l.4,5.7h0l2.8-5.7h1.8l-4.1,8H49.3L49,15.8h0l-2.7,5.8H44.5Z" transform="translate(14.9 59.3)"/><path class="cls-22" d="M51.2,21.6H49.3L49,15.8h0l-2.7,5.8H44.5l-1-8h1.9l.4,5.7h0l2.7-5.7h1.8l.4,5.7h0l2.8-5.7h1.8Zm-1.9-.1h1.9l4.1-7.9H53.5l-2.8,5.7h0l-.4-5.7H48.5l-2.6,5.7h-.1l-.5-5.7H43.6l.9,7.9h1.8l2.6-5.7H49Z" transform="translate(14.9 59.3)"/><path class="cls-21" d="M61.9,19.2a.9.9,0,0,1-.1.5V20a.4.4,0,0,0,.1.3h.9l-.3,1.3H61.1a1,1,0,0,1-1-1,3.3,3.3,0,0,1-1.3.7,3.2,3.2,0,0,1-1.4.3l-.9-.2a2,2,0,0,1-.8-.4,1.2,1.2,0,0,1-.6-.6,3,3,0,0,1-.2-1,2.4,2.4,0,0,1,.3-1.2,2.7,2.7,0,0,1,.7-.8l1.1-.5,1.2-.2H60a1.1,1.1,0,0,0,.7-.3,1.9,1.9,0,0,0,.2-.8.7.7,0,0,0-.4-.7,1.3,1.3,0,0,0-.9-.2l-1.3.2a1.5,1.5,0,0,0-.7,1H55.9a3.3,3.3,0,0,1,.5-1.2,2.4,2.4,0,0,1,.9-.8l1.1-.5h1.3l1.7.2a1.9,1.9,0,0,1,.9.5.9.9,0,0,1,.3.6,1.1,1.1,0,0,1,.1.5,5,5,0,0,1-.2,1.2Zm-5.2.2a.9.9,0,0,0,.1.5l.3.3h1l1-.2.8-.6a2.5,2.5,0,0,0,.4-.9l.3-1.1h-.1l-.5.3H58.6l-.9.2-.7.4A1,1,0,0,0,56.7,19.4Z" transform="translate(14.9 59.3)"/><path class="cls-22" d="M61.1,21.8a1,1,0,0,1-1-1,3.3,3.3,0,0,1-1.3.7,3.2,3.2,0,0,1-1.4.3l-1-.2-.7-.4a1.2,1.2,0,0,1-.6-.6,3,3,0,0,1-.2-1,2.4,2.4,0,0,1,.3-1.2,2.7,2.7,0,0,1,.7-.8l1.1-.5,1.2-.2H60l.7-.3a1.9,1.9,0,0,0,.2-.8.7.7,0,0,0-.4-.7,1.3,1.3,0,0,0-.9-.2l-1.3.2a1.5,1.5,0,0,0-.7,1H55.9a3.3,3.3,0,0,1,.5-1.2,2,2,0,0,1,.8-.8,4.3,4.3,0,0,1,1.2-.5h1.3l1.7.2a1.9,1.9,0,0,1,.9.5.9.9,0,0,1,.3.6,1.1,1.1,0,0,1,.1.5,5,5,0,0,1-.2,1.2l-.6,2.8a.9.9,0,0,1-.1.5V20a.4.4,0,0,0,.1.3h.9l-.3,1.3H61.1Zm-1-1.1h0a1,1,0,0,0,1,1h.7l.7-.2.3-1.2h-.9a.4.4,0,0,1-.1-.3v-.3a.9.9,0,0,0,.1-.5l.6-2.8a5,5,0,0,0,.2-1.2,4.3,4.3,0,0,1-.1-.5c0-.2-.2-.4-.3-.6a1.9,1.9,0,0,0-.9-.5l-1.7-.2H58.4l-1.1.5a3.4,3.4,0,0,0-.9.8A2.1,2.1,0,0,0,56,16h1.6a1.5,1.5,0,0,1,.7-1l1.3-.2a1.3,1.3,0,0,1,.9.2c.3.1.4.3.4.7a1.1,1.1,0,0,1-.2.8.8.8,0,0,1-.7.3H58.3l-1.3.2-1.1.5a2.7,2.7,0,0,0-.7.8,2.4,2.4,0,0,0-.3,1.2,3,3,0,0,0,.2,1c.2.2.3.5.6.6a2,2,0,0,0,.8.4l.9.2a3.2,3.2,0,0,0,1.4-.3,2.6,2.6,0,0,0,1.3-.8Zm-2-.3h-1l-.3-.3a.9.9,0,0,1-.1-.5,1,1,0,0,1,.3-.8l.7-.4.9-.2H60l.5-.3h.1l-.3,1a2.5,2.5,0,0,1-.4.9l-.7.6Zm2.4-2.8c-.1.2-.2.2-.5.3H57.7l-.7.4a1,1,0,0,0-.3.8.9.9,0,0,0,.1.5l.3.3h1l1-.2.8-.6a3.6,3.6,0,0,0,.4-.9l.3-1Z" transform="translate(14.9 59.3)"/><path class="cls-21" d="M64,13.6h1.9l.8,5.8h0l3-5.8h1.9l-4.5,8.2-.6,1.1-.7.9a2.2,2.2,0,0,1-.9.7l-1.2.2H62.6l.3-1.5h1.4a1,1,0,0,0,.4-.5l.7-1.3Z" transform="translate(14.9 59.3)"/><path class="cls-22" d="M63.7,24.7H62.6l.3-1.5h1.4a1,1,0,0,0,.4-.5l.7-1.3L64,13.6h1.9l.8,5.8h0l3-5.8h1.9l-4.5,8.2-.6,1.1a3.1,3.1,0,0,1-.7.9,2.2,2.2,0,0,1-.9.7Zm-1.1-.1h1.1l1.2-.2.9-.7.7-.9.6-1.1,4.5-8.2H69.7l-2.9,5.8h-.1l-.8-5.8H64.1l1.3,7.7-.6,1.3c-.2.2-.3.4-.5.5l-.7.2h-.7Z" transform="translate(14.9 59.3)"/><path class="cls-21" d="M76.7,15.9c0-.4-.1-.7-.4-.8a2.1,2.1,0,0,0-1.2-.3h-.5l-.4.2-.3.3a.7.7,0,0,0-.1.5c0,.2,0,.3.2.4l.5.3.8.3.8.2.7.3.6.5a1,1,0,0,1,.4.5,2.5,2.5,0,0,1,.1.9,2,2,0,0,1-.3,1.1,2.3,2.3,0,0,1-.8.9l-1.1.4-1.3.2-1.3-.2a1.8,1.8,0,0,1-1-.4,2.2,2.2,0,0,1-.7-.9,2.5,2.5,0,0,1-.3-1.3h1.7c0,.2,0,.5.1.6a1,1,0,0,0,.4.5l.5.2h1.8a.8.8,0,0,0,.4-.4.8.8,0,0,0,.2-.6c0-.2-.1-.3-.2-.5l-.6-.3-.8-.3c-.3-.1-.6-.1-.8-.3l-.7-.2-.6-.4c-.1-.2-.3-.4-.3-.6a1.9,1.9,0,0,1-.2-.8,2,2,0,0,1,.3-1.1L73,14l1.1-.5h2.4l1,.4a2.7,2.7,0,0,1,.7.8,3.7,3.7,0,0,1,.2,1.2Z" transform="translate(14.9 59.3)"/><path class="cls-22" d="M74.4,21.8l-1.3-.2a1.8,1.8,0,0,1-1-.4,2.2,2.2,0,0,1-.7-.9,2.5,2.5,0,0,1-.3-1.3h1.7c0,.2,0,.5.1.6a1,1,0,0,0,.4.5l.5.2h1.3l.5-.2c.2,0,.3-.1.4-.3a.8.8,0,0,0,.2-.6c0-.2-.1-.3-.2-.5l-.6-.3-.8-.3-.8-.2-.7-.3-.6-.4-.4-.6c0-.2-.1-.5-.1-.8a2,2,0,0,1,.3-1.1A1.6,1.6,0,0,1,73,14l1.1-.5h2.4l1,.4a2.7,2.7,0,0,1,.7.8,3.7,3.7,0,0,1,.2,1.2H76.7a.9.9,0,0,0-.4-.8,2.1,2.1,0,0,0-1.2-.3h-.5l-.4.2-.3.3a.7.7,0,0,0-.1.5c0,.2,0,.3.2.4l.5.3.8.3.8.2.7.3.6.5a1,1,0,0,1,.4.5,2.4,2.4,0,0,1,.2.9,1.5,1.5,0,0,1-.4,1.1,2.3,2.3,0,0,1-.8.9l-1.1.4ZM71.1,19a2.5,2.5,0,0,0,.3,1.3,2.2,2.2,0,0,0,.7.9l1,.4,1.3.2,1.3-.2a2.2,2.2,0,0,0,1.1-.5,1.6,1.6,0,0,0,.8-.8,2,2,0,0,0,.3-1.1,1.9,1.9,0,0,0-.1-.8,1.5,1.5,0,0,0-.4-.6l-.6-.5-.7-.3-.8-.2-.8-.3-.5-.3c-.2-.1-.2-.2-.2-.4a.7.7,0,0,1,.1-.5l.3-.3.4-.2h.5l1.2.2a1,1,0,0,1,.4.9h1.7a2.1,2.1,0,0,0-.3-1.2,1.6,1.6,0,0,0-.6-.8l-1-.4H74.1l-1,.5a1.9,1.9,0,0,0-.8.7,2,2,0,0,0-.3,1.1,1.9,1.9,0,0,0,.2.8l.3.5.6.5.7.2.8.3.8.3.6.3c.1.2.2.3.2.5a.8.8,0,0,1-.2.6.8.8,0,0,1-.4.4H73.8l-.6-.2-.3-.5c-.1-.1-.1-.3-.1-.6Z" transform="translate(14.9 59.3)"/><path class="cls-21" d="M80.9,13.5h.9l.3-.2v-.4a.5.5,0,0,0-.3-.5l-.5-.2a.7.7,0,0,0-.6.3.6.6,0,0,0-.3.6h-.8c.1-.2.1-.4.2-.6a1,1,0,0,1,.4-.5.5.5,0,0,1,.5-.3l.7-.2h.6l.4.2.3.4a.9.9,0,0,1,.1.5,1.1,1.1,0,0,1-.2.8l-.6.4h0a.8.8,0,0,1,.4.4,1.4,1.4,0,0,1,.2.6,1.4,1.4,0,0,1-.2.7,1,1,0,0,1-.4.5l-.6.3h-.8a1.5,1.5,0,0,1-1-.3,1.4,1.4,0,0,1-.5-1v-.2H80a1.4,1.4,0,0,0,.2.6l.7.2a1,1,0,0,0,1-1c0-.2,0-.3-.1-.4l-.2-.2h-.8Z" transform="translate(14.9 59.3)"/><path class="cls-22" d="M80.7,16.4a2,2,0,0,1-1.1-.3,1.8,1.8,0,0,1-.4-1v-.2H80a.8.8,0,0,0,.2.5,1,1,0,0,0,1.7-.7c0-.2-.1-.3-.1-.4l-.2-.2h-.8v-.6h.9l.3-.2v-.4a.5.5,0,0,0-.3-.5l-.5-.2a.7.7,0,0,0-.6.3.7.7,0,0,0-.3.6h-.8c.1-.2.1-.4.2-.6a1,1,0,0,1,.4-.5.5.5,0,0,1,.5-.3l.7-.2h.6l.4.2.3.4c.1.2.2.3.2.5a1.1,1.1,0,0,1-.3.8l-.6.4h0a.8.8,0,0,1,.4.4,1.4,1.4,0,0,1,.2.6,1.4,1.4,0,0,1-.2.7,1,1,0,0,1-.4.5l-.6.3Zm-1.4-1.6h0v.2a1.3,1.3,0,0,0,.4,1,1.5,1.5,0,0,0,1,.3h.8l.6-.3a1,1,0,0,0,.4-.5,1.5,1.5,0,0,0,.1-.7,1.3,1.3,0,0,0-.1-.6.8.8,0,0,0-.4-.4h0l.6-.4a1.1,1.1,0,0,0,.2-.8.9.9,0,0,0-.1-.5l-.3-.4-.5-.2H80.8a.9.9,0,0,0-.5.3l-.4.5c-.1.2-.1.4-.2.6h.8a.6.6,0,0,1,.3-.6.7.7,0,0,1,.6-.3.7.7,0,0,1,.6.2.6.6,0,0,1,.2.5v.4l-.3.2h-.9v.6h.8l.2.2c.1.1.1.2.1.4a1,1,0,0,1-1,1l-.7-.2A1.4,1.4,0,0,1,80,15h-.7Z" transform="translate(14.9 59.3)"/><path class="cls-22" d="M245.2,33.6V12a5.3,5.3,0,0,0-5.3-5.3H200.8a5.3,5.3,0,0,0-5.3,5.3V42.8h49.7Z" transform="translate(14.9 59.3)"/><path class="cls-24" d="M200.8,51.4h39.1a5.3,5.3,0,0,0,5.3-5.3V42.8H195.5v3.3A5.3,5.3,0,0,0,200.8,51.4Z" transform="translate(14.9 59.3)"/><path class="cls-22" d="M205.4,40.8a15.7,15.7,0,0,1-3.8-2.2l-1.4-.9a5,5,0,0,1-2.1,2.2c-.3.2-.4,0-.1-.2a5.7,5.7,0,0,0,1.6-2.2,1.5,1.5,0,0,0,.2-1.1c0-.2.1-.3.6-.1s.4.4.2.6-.1.1-.2.4l1,.6V36.7a3.1,3.1,0,0,0-.1-1.2l-2,.5a1.2,1.2,0,0,1-1.1-.2c-.2-.2-.1-.4.1-.4a13.8,13.8,0,0,0,3.1-.4V33.8c-1,.2-1.2.2-1.5,0s-.2-.2.1-.3l1.4-.3a4.5,4.5,0,0,0-.3-2.2c-.2-.3,0-.5.6-.2s.6.3.5.6-.1,1-.2,1.6.7-.2.9-.1.4.4-.1.5l-.8.3v1.1c.7-.1,1-.2,1.2-.1s.4.4,0,.4l-1.5.3c.4.2.5.4.4.6a2.2,2.2,0,0,0-.1.6l1.1-.4c.4.1.4.4.1.5a1.3,1.3,0,0,1-1.2.1v1.4A12.3,12.3,0,0,0,209,40c.4,0,.4.3,0,.4-2.6.8-2.8.8-3.6.4Z" transform="translate(14.9 59.3)"/><path class="cls-22" d="M207,33.8c-.1.8-.3,1.2-.7,1.4s-.3.2-.4,0a3.5,3.5,0,0,0-.5-.8c-.1-.1,0-.2.1-.1s.6.1.7-.2a2.9,2.9,0,0,0,.4-1.6c0-.1,0-.2-.3-.2l-1.1.3c.4.2.4.4.3.6s-.1.2-.2.4a4.4,4.4,0,0,1-1.8,2.3c-.2.1-.3,0-.2-.2a4.6,4.6,0,0,0,1.5-3c-.6.1-.8.1-1.1-.1s-.1-.3.1-.3a5.5,5.5,0,0,0,2.6-.5c.1-.1.4-.1.9.2s.5.5.3.6-.4.4-.6,1.2Z" transform="translate(14.9 59.3)"/><path class="cls-25" d="M205.4,40.8a15.7,15.7,0,0,1-3.8-2.2l-1.4-.9a5,5,0,0,1-2.1,2.2c-.3.2-.4,0-.1-.2a5.7,5.7,0,0,0,1.6-2.2,1.5,1.5,0,0,0,.2-1.1c0-.2.1-.3.6-.1s.4.4.2.6-.1.1-.2.4l1,.6V36.7a3.1,3.1,0,0,0-.1-1.2l-2,.5a1.2,1.2,0,0,1-1.1-.2c-.2-.2-.1-.4.1-.4a13.8,13.8,0,0,0,3.1-.4V33.8c-1,.2-1.2.2-1.5,0s-.2-.2.1-.3l1.4-.3a4.5,4.5,0,0,0-.3-2.2c-.2-.3,0-.5.6-.2s.6.3.5.6-.1,1-.2,1.6.7-.2.9-.1.4.4-.1.5l-.8.3v1.1c.7-.1,1-.2,1.2-.1s.4.4,0,.4l-1.5.3c.4.2.5.4.4.6a2.2,2.2,0,0,0-.1.6l1.1-.4c.4.1.4.4.1.5a1.3,1.3,0,0,1-1.2.1v1.4A12.3,12.3,0,0,0,209,40c.4,0,.4.3,0,.4-2.6.8-2.8.8-3.6.4Z" transform="translate(14.9 59.3)"/><path class="cls-26" d="M207,33.8c-.1.8-.3,1.2-.7,1.4s-.3.2-.4,0a3.5,3.5,0,0,0-.5-.8c-.1-.1,0-.2.1-.1s.6.1.7-.2a2.9,2.9,0,0,0,.4-1.6c0-.1,0-.2-.3-.2l-1.1.3c.4.2.4.4.3.6s-.1.2-.2.4a4.4,4.4,0,0,1-1.8,2.3c-.2.1-.3,0-.2-.2a4.6,4.6,0,0,0,1.5-3c-.6.1-.8.1-1.1-.1s-.1-.3.1-.3a5.5,5.5,0,0,0,2.6-.5c.1-.1.4-.1.9.2s.5.5.3.6-.4.4-.6,1.2Z" transform="translate(14.9 59.3)"/><path class="cls-25" d="M207.2,35.9a1,1,0,0,0-.9-.1,5.4,5.4,0,0,1-2,.4c-.6-.2-.7-.1-.5.2a3.7,3.7,0,0,1,.4,1.7c0,.3.2.6.3.6s.2-.2.2-.3l2.2-.2c.2,0,.2-.3.1-.4s-.1-.2,0-.4a1.7,1.7,0,0,1,.5-.9C207.7,36.3,207.7,36.1,207.2,35.9Zm-1.3,1.9-1.2.2c0-.6-.1-1-.1-1.4a4.9,4.9,0,0,1,1.5-.2c.2,0,.3,0,.3.2S206.3,37.7,205.9,37.8Z" transform="translate(14.9 59.3)"/><path class="cls-27" d="M211.2,39.8c-.4.4-.5.4-1,0s-.3-.6.1-.6a2.7,2.7,0,0,0,1.3-.4l2-.8c.6-.2.7,0,.3.2a18.6,18.6,0,0,0-2.7,1.6Z" transform="translate(14.9 59.3)"/><path class="cls-27" d="M212.1,36.8a7.1,7.1,0,0,1,2-.5c.2,0,.3.1,0,.2a12.5,12.5,0,0,0-2.6,1.1c-.3.2-.5.2-.6-.2s-.1-.4.4-.6.6-.4,1.4-1.6a4.1,4.1,0,0,0-1.7.5q-.6.3-.6-.3c0-.3.1-.4.4-.5s.4-.3,1-1.7a2.4,2.4,0,0,0,.4-1.6c-.2-.4.1-.5.7,0s.5.5.2.7a23.1,23.1,0,0,0-1.7,2.7h1.5c.7-.9.7-1.1.7-1.3s.2-.4.6-.1.3.4,0,.7l-2.1,2.6Z" transform="translate(14.9 59.3)"/><path class="cls-27" d="M221.5,40.2h0c0-.1-.1-.1-.2-.1a6.4,6.4,0,0,1-3.3-1.8,7.7,7.7,0,0,0,.6-1.5,1.6,1.6,0,0,1,.3-.6c.3-.3.3-.5-.1-.6l-.6-.2h-.5A14.1,14.1,0,0,1,219,33c.4-.3.4-.5-.2-.8s-.7-.2-1,0a10.1,10.1,0,0,1-2.8.9q-.6,0-.3.3a.1.1,0,0,1,.1.1h.2c.1.1.3.1.7-.1a1.4,1.4,0,0,1,0,.9v.2c0,.1-.1.1-.1.2v.4a.4.4,0,0,0-.1.3h-.1v.4c-.1,0-.1.1-.1.2h0c0,.1,0,.1-.1.2s0,.3-.1.4v.2h0a6.9,6.9,0,0,1-2.1,2.8c-.4.4-.4.6.1.4a7.5,7.5,0,0,0,2.2-2.4l.6-1.3a3.8,3.8,0,0,1,.9.9l.6.8-.7.7a8.5,8.5,0,0,1-1.5.9H215q-.6.3,0,.3a5.6,5.6,0,0,0,2.7-1.5,11.3,11.3,0,0,0,1,1.3c.4.7.5.7,2.6.4h.2C221.6,40.3,221.6,40.2,221.5,40.2Zm-3.6-3.8a3.3,3.3,0,0,1-.4,1.4l-.5-.6a3.2,3.2,0,0,0-1.1-1l.3-1.1a2.2,2.2,0,0,1,.3-.8c.2-.3.2-.4-.5-.9l.9-.3c1.1-.4,1.2-.4,1.1.2a10.7,10.7,0,0,1-.6,1.7c-.3.4-.3.5,0,.6S218,35.9,217.9,36.4Z" transform="translate(14.9 59.3)"/><path class="cls-27" d="M211.2,39.8c-.4.4-.5.4-1,0s-.3-.6.1-.6a2.7,2.7,0,0,0,1.3-.4l2-.8c.6-.2.7,0,.3.2a18.6,18.6,0,0,0-2.7,1.6Z" transform="translate(14.9 59.3)"/><path class="cls-27" d="M212.1,36.8a7.1,7.1,0,0,1,2-.5c.2,0,.3.1,0,.2a12.5,12.5,0,0,0-2.6,1.1c-.3.2-.5.2-.6-.2s-.1-.4.4-.6.6-.4,1.4-1.6a4.1,4.1,0,0,0-1.7.5q-.6.3-.6-.3c0-.3.1-.4.4-.5s.4-.3,1-1.7a2.4,2.4,0,0,0,.4-1.6c-.2-.4.1-.5.7,0s.5.5.2.7a23.1,23.1,0,0,0-1.7,2.7h1.5c.7-.9.7-1.1.7-1.3s.2-.4.6-.1.3.4,0,.7l-2.1,2.6Z" transform="translate(14.9 59.3)"/><path class="cls-27" d="M221.5,40.2h0c0-.1-.1-.1-.2-.1a6.4,6.4,0,0,1-3.3-1.8,7.7,7.7,0,0,0,.6-1.5,1.6,1.6,0,0,1,.3-.6c.3-.3.3-.5-.1-.6l-.6-.2h-.5A14.1,14.1,0,0,1,219,33c.4-.3.4-.5-.2-.8s-.7-.2-1,0a10.1,10.1,0,0,1-2.8.9q-.6,0-.3.3a.1.1,0,0,1,.1.1h.2c.1.1.3.1.7-.1h0a1.4,1.4,0,0,1,0,.9v.2c0,.1-.1.1-.1.2v.4a.4.4,0,0,0-.1.3h-.1v.4c-.1,0-.1.1-.1.2h0c0,.1,0,.1-.1.2s0,.3-.1.4v.2h0a6.9,6.9,0,0,1-2.1,2.8c-.4.4-.4.6.1.4a7.5,7.5,0,0,0,2.2-2.4l.6-1.3a3.8,3.8,0,0,1,.9.9l.6.8-.7.7a8.5,8.5,0,0,1-1.5.9H215q-.6.3,0,.3a5.6,5.6,0,0,0,2.7-1.5,11.3,11.3,0,0,0,1,1.3c.4.7.5.7,2.6.4h.2C221.6,40.3,221.6,40.2,221.5,40.2Zm-3.6-3.8a3.3,3.3,0,0,1-.4,1.4l-.5-.6a3.2,3.2,0,0,0-1.1-1l.3-1.1a2.2,2.2,0,0,1,.3-.8c.2-.3.2-.4-.5-.9l.9-.3c1.1-.4,1.2-.4,1.1.2a10.7,10.7,0,0,1-.6,1.7c-.3.4-.3.5,0,.6S218,35.9,217.9,36.4Z" transform="translate(14.9 59.3)"/><path class="cls-22" d="M225.1,35.5a6.9,6.9,0,0,1-3.2,2.9c-.3.1-.3-.1,0-.3a9.7,9.7,0,0,0,2.8-3.5,2,2,0,0,0,.3-1.4c-.1-.2.1-.4.5-.2s.8.6.6.9a17.4,17.4,0,0,0-1,1.6Z" transform="translate(14.9 59.3)"/><path class="cls-22" d="M229.6,40.3l-.7-1.1a29.8,29.8,0,0,0-4.2,1.2c-.4.3-.5.2-.5-.3s.1-.7.2-.7a2.6,2.6,0,0,0,1-.7,7,7,0,0,0,1.1-2.7c-.1-.4.2-.4.6-.2s.6.6.4.9a4.5,4.5,0,0,0-.7.9l-1.4,1.7,3.3-.5-.5-.9c-.2-.3-.1-.3.2-.2s1.9,1.5,1.9,2.2-.4.8-.7.4Z" transform="translate(14.9 59.3)"/><path class="cls-22" d="M230.3,36.2a32.8,32.8,0,0,1-2-3.1,7.2,7.2,0,0,0-1.4-1.7c-.3-.2-.4-.4.1-.3a1.2,1.2,0,0,1,1.2.7c1.7,2.9,3,3.8,5.1,4.5.4.1.4.3,0,.3-2.2.2-2.6.2-3-.4Z" transform="translate(14.9 59.3)"/><path class="cls-28" d="M225.1,35.5a6.9,6.9,0,0,1-3.2,2.9c-.3.1-.3-.1,0-.3a9.7,9.7,0,0,0,2.8-3.5,2,2,0,0,0,.3-1.4c-.1-.2.1-.4.5-.2s.8.6.6.9a17.4,17.4,0,0,0-1,1.6Z" transform="translate(14.9 59.3)"/><path class="cls-28" d="M229.6,40.3l-.7-1.1a29.8,29.8,0,0,0-4.2,1.2c-.4.3-.5.2-.5-.3s.1-.7.2-.7a2.6,2.6,0,0,0,1-.7,7,7,0,0,0,1.1-2.7c-.1-.4.2-.4.6-.2s.6.6.4.9a4.5,4.5,0,0,0-.7.9l-1.4,1.7,3.3-.5-.5-.9c-.2-.3-.1-.3.2-.2s1.9,1.5,1.9,2.2-.4.8-.7.4Z" transform="translate(14.9 59.3)"/><path class="cls-28" d="M230.3,36.2a32.8,32.8,0,0,1-2-3.1,7.2,7.2,0,0,0-1.4-1.7c-.3-.2-.4-.4.1-.3a1.2,1.2,0,0,1,1.2.7c1.7,2.9,3,3.8,5.1,4.5.4.1.4.3,0,.3-2.2.2-2.6.2-3-.4Z" transform="translate(14.9 59.3)"/><path class="cls-22" d="M241,33.2c-.4.2-.4.1-.2-.1s.4-.9-.1-.9a27.7,27.7,0,0,0-4.1.5c-.9.2-1.1.2-1.4,0a3.1,3.1,0,0,1-.9,1.6c-.2.1-.3,0-.4-.3a.8.8,0,0,1,.2-.7l.6-1.1c.2-.4.3-.4.5.3l3.2-.4,2.5-.4c.2-.1.5,0,1.1.5s.8,1,.4.9a2.9,2.9,0,0,0-1.4.1Z" transform="translate(14.9 59.3)"/><path class="cls-22" d="M241.6,37c-.5-.3-.7-.4-.9-.3a13.8,13.8,0,0,1-2.6.5v-.9h.5a.5.5,0,0,1,.4.2c.1.1.3.2.6-.2a3.8,3.8,0,0,0,.5-1.1,3.4,3.4,0,0,1,.3-.8h.2c.1-.1.2-.3,0-.4l-.6-.4h-.6a20.4,20.4,0,0,1-3.2.6c-.6-.2-.6-.1-.5.1a7.9,7.9,0,0,1,.5,2c.1.7.2.7.3.7s.1,0,.1-.1h1.1v1l-2.3.2c-.7-.3-.9-.2-.7.1a4.1,4.1,0,0,0,.2.7,5.7,5.7,0,0,1,0,1.3,1.3,1.3,0,0,0,.2.9c.1.3.3.3.4-.2a9.9,9.9,0,0,0,0-2.5l2.2-.2v1.2l-1.5.2c-.1,0-.3.1,0,.4s.3.3.7.2.1-.1.2-.1h.3c0-.1.1-.1.2-.1h1.7l.3.4c.2.3.4.1.4-.2a.8.8,0,0,0-.3-.8h-.7c-.1-.1-.2,0-.1.1a.8.8,0,0,1,.2.4l-.9.2V37.5l2.2-.2c.5-.1.7.1.7.7s-.1,1.4-.1,1.7-.2.5-.9.2-.3,0-.1.3h.1c.1,0,.1.1.2.2a.5.5,0,0,0,.2.4h0c.1.3.3.4.6,0a2.4,2.4,0,0,0,.7-1.2v-.3a.4.4,0,0,0,.1-.3v-.9c.1-.3.1-.6.2-.7S242.1,37.3,241.6,37ZM237,35.2h.7v.9h-1c-.1-.5-.1-1.1-.3-2.1h1.1a1.5,1.5,0,0,1,.2.8l-.7.2C236.8,35,236.8,35.1,237,35.2Zm1-1.3,1.1-.2c.5,0,.5.1.5.4a6.2,6.2,0,0,1-.4,1.6c-.1.2-.1.3-.3.2h-.8v-.9h.7a.2.2,0,0,0,.1-.3c-.2-.1-.3-.1-.8,0v-.3A.4.4,0,0,0,238,33.9Z" transform="translate(14.9 59.3)"/><path class="cls-22" d="M236.4,34.1h0Z" transform="translate(14.9 59.3)"/><path class="cls-22" d="M238.2,31.7a2,2,0,0,1-.8-.8c-.2-.2-.2-.3.2-.3s1.2.4,1.2,1-.4.4-.6.1Z" transform="translate(14.9 59.3)"/><path class="cls-29" d="M241,33.2c-.4.2-.4.1-.2-.1s.4-.9-.1-.9a27.7,27.7,0,0,0-4.1.5c-.9.2-1.1.2-1.4,0a3.1,3.1,0,0,1-.9,1.6c-.2.1-.3,0-.4-.3a.8.8,0,0,1,.2-.7l.6-1.1c.2-.4.3-.4.5.3l3.2-.4,2.5-.4c.2-.1.5,0,1.1.5s.8,1,.4.9a2.9,2.9,0,0,0-1.4.1Z" transform="translate(14.9 59.3)"/><path class="cls-29" d="M241.6,37c-.5-.3-.7-.4-.9-.3a13.8,13.8,0,0,1-2.6.5v-.9h.5a.5.5,0,0,1,.4.2c.1.1.3.2.6-.2a3.8,3.8,0,0,0,.5-1.1,3.4,3.4,0,0,1,.3-.8h.2c.1-.1.2-.3,0-.4l-.6-.4h-.6a20.4,20.4,0,0,1-3.2.6c-.6-.2-.6-.1-.5.1a7.9,7.9,0,0,1,.5,2c.1.7.2.7.3.7s.1,0,.1-.1h1.1v1l-2.3.2c-.7-.3-.9-.2-.7.1a4.1,4.1,0,0,0,.2.7,5.7,5.7,0,0,1,0,1.3,1.3,1.3,0,0,0,.2.9c.1.3.3.3.4-.2a9.9,9.9,0,0,0,0-2.5l2.2-.2v1.2l-1.5.2c-.1,0-.3.1,0,.4s.3.3.7.2.1-.1.2-.1h.3c0-.1.1-.1.2-.1h1.7l.3.4c.2.3.4.1.4-.2a.8.8,0,0,0-.3-.8h-.7c-.1-.1-.2,0-.1.1a.8.8,0,0,1,.2.4l-.9.2V37.5l2.2-.2c.5-.1.7.1.7.7s-.1,1.4-.1,1.7-.2.5-.9.2-.3,0-.1.3h.1c.1,0,.1.1.2.2a.5.5,0,0,0,.2.4h0c.1.3.3.4.6,0a2.4,2.4,0,0,0,.7-1.2v-.3a.4.4,0,0,0,.1-.3v-.9c.1-.3.1-.6.2-.7S242.1,37.3,241.6,37ZM237,35.2h.7v.9h-1c-.1-.5-.1-1.1-.3-2.1h1.1a1.5,1.5,0,0,1,.2.8l-.7.2C236.8,35,236.8,35.1,237,35.2Zm1-1.3,1.1-.2c.5,0,.5.1.5.4a6.2,6.2,0,0,1-.4,1.6c-.1.2-.1.3-.3.2h-.8v-.9h.7a.2.2,0,0,0,.1-.3c-.2-.1-.3-.1-.8,0v-.3A.4.4,0,0,0,238,33.9Z" transform="translate(14.9 59.3)"/><path class="cls-29" d="M238.2,31.7a2,2,0,0,1-.8-.8c-.2-.2-.2-.3.2-.3s1.2.4,1.2,1-.4.4-.6.1Z" transform="translate(14.9 59.3)"/><path class="cls-30" d="M220.2,25.2a2,2,0,0,1-1.3,1.9,2.5,2.5,0,0,1-1.2.2H199.2a2.2,2.2,0,0,1-1.4-2,2.2,2.2,0,0,1,.4-1.3,2.4,2.4,0,0,1,1.3-.9h15.1a.8.8,0,0,0,.7-.9c0-.2.1-.3,0-.5a1,1,0,0,0-.8-.7H199.4a2.1,2.1,0,0,1-1.6-2V12a2,2,0,0,1,1.4-1.9,2.2,2.2,0,0,1,1.1-.2,1.8,1.8,0,0,1,1,.2,2,2,0,0,1,1.4,1.7v3.6c0,.6.3,1,.9,1h14.1l1,.2a1.9,1.9,0,0,1,1.5,1.9Z" transform="translate(14.9 59.3)"/><path class="cls-31" d="M220,13a2.4,2.4,0,0,1-1.4,1.2H206.5a2.2,2.2,0,0,1-1.4-1.8,3.2,3.2,0,0,1,.3-1.4,3.1,3.1,0,0,1,1.5-1h10.7a2.7,2.7,0,0,1,1.3.2,2,2,0,0,1,1.3,1.8A2,2,0,0,1,220,13Z" transform="translate(14.9 59.3)"/><path class="cls-30" d="M231.7,10.6c0-.4-.3-.6-.7-.7h-1.1l-1.4.2h0c0-.2,0-.2-.2-.2H227c-.1,0-.1,0-.1.2h0v9.5h0c0,.2,0,.2.1.2h1.3c.2,0,.2,0,.2-.2h0V17.5c0-.2,0-.2.2-.2h2.1a1.2,1.2,0,0,0,.9-.9V10.6Zm-1.6,4.7v.3a.5.5,0,0,1-.5.3h-1.1V11.5H230c.1,0,.1.1.1.2Z" transform="translate(14.9 59.3)"/><path class="cls-32" d="M237.1,14.8h-1.3c-.2,0-.2,0-.2.2v.9h-1.5V14.1h2.3a.6.6,0,0,0,.6-.3h.1c.1,0,.1-.1.1-.3V10.4a1.2,1.2,0,0,0-.5-.5h-3.5a.7.7,0,0,0-.7.6v5.9a.8.8,0,0,0,.5.8h3.3c.6,0,.9-.2.9-.8V15C237.2,14.8,237.2,14.8,237.1,14.8Zm-3-3.6h1.5v1.6h-1.5Z" transform="translate(14.9 59.3)"/><path class="cls-27" d="M226,10.1v7h-1.6a.1.1,0,0,0-.1-.1l-1.5.2h-1c-.3-.1-.6-.3-.6-.6a.4.4,0,0,1-.1-.3V10.1h1.5c.2,0,.2,0,.2.2v5.5c0,.2,0,.2.2.2h1.2c.2,0,.2,0,.2-.2V10.1c0-.2-.1-.2.1-.2h1.3C226.1,9.9,226,9.9,226,10.1Z" transform="translate(14.9 59.3)"/><path class="cls-33" d="M242.6,12.8c0,.1,0,.2-.1.2h-1.4c-.1,0-.1-.1-.1-.2V11.5c0-.2,0-.2-.2-.2h-.9c-.3,0-.2.1-.2.2v5.6c0,.2,0,.2-.2.2h-1.3c-.2,0-.2,0-.2-.2V10h1.7v.2h2.2c.5,0,.7.3.7.8Z" transform="translate(14.9 59.3)"/><polygon class="cls-34" points="240.6 86.6 239.3 86.6 239.3 82.9 237.4 82.9 237.4 86.6 236 86.6 236 78.3 237.4 78.3 237.4 81.7 239.3 81.7 239.3 78.3 240.6 78.3 240.6 86.6 240.6 86.6"/><path class="cls-34" d="M229.2,26.3V23H228v3.3Zm1.4.4c0,.4-.3.6-.8.6h-2.4c-.5,0-.7-.2-.7-.6V22.6c0-.4.2-.6.7-.6h2.4c.5,0,.8.2.8.6v4.1Z" transform="translate(14.9 59.3)"/><path class="cls-34" d="M238,27.3h-1.4V23h-1.2v4.3H234V23h-1.2v4.3h-1.4V22h3.2q.6,0,.6.3l1-.2h1c.5,0,.8.2.8.7v4.7Z" transform="translate(14.9 59.3)"/><path class="cls-34" d="M241.4,24.1V22.8h-1.3v1.3Zm1.2,2.6c0,.4-.2.6-.7.6h-2.3c-.5,0-.8-.2-.8-.6V22.6c0-.4.3-.6.8-.6h2.3c.5,0,.7.2.7.6v2l-.3.3h-2.2v1.5h1.3v-.9h1.2v1.2Z" transform="translate(14.9 59.3)"/><path class="cls-22" d="M217.3,48.4l-.3.6.9.6.4-.5A2.3,2.3,0,0,0,217.3,48.4Z" transform="translate(14.9 59.3)"/><path class="cls-22" d="M226.6,48.4l-.3.6.9.6.4-.5A2.3,2.3,0,0,0,226.6,48.4Z" transform="translate(14.9 59.3)"/><path class="cls-22" d="M225,44.7H197.9v.7h3.4a7.2,7.2,0,0,0-1.5.7,7.6,7.6,0,0,0-1.6.8l.2.8a4.1,4.1,0,0,1,1.7.5,3.8,3.8,0,0,1,1.3,1.2h.6v-4h1.1a1.6,1.6,0,0,0-.4,1,2.6,2.6,0,0,0,.3,1,3.3,3.3,0,0,1,.3,1c0,.2-.2.4-.7.5v.7l1-.3a1,1,0,0,0,.5-.8,3,3,0,0,0-.3-1.1,3.6,3.6,0,0,1-.3-1.1,3.1,3.1,0,0,1,.4-.9h.9v4h.7v-4h1.5l-.7,1a2.7,2.7,0,0,0-.3,1.2,2.8,2.8,0,0,0,.6,1.8,1.7,1.7,0,0,0,1.2.3l.5-.2h0a5,5,0,0,0,1.6-.5,2.7,2.7,0,0,0,1.1-1.9,2.7,2.7,0,0,0-.7-.8l-.6.2a1.4,1.4,0,0,1-1.2-.6v-.4h6.5v1.3l-.5-.3c-.4,0-.6.2-.9.5a1.4,1.4,0,0,0-1-.5,1,1,0,0,0-.9.4,1.2,1.2,0,0,0-.4,1,1.3,1.3,0,0,0,.4,1,1.1,1.1,0,0,0,.9.4h.3l.3-.8h-.3c-.5,0-.8-.2-.8-.6s.2-.8.5-.8.3.1.4.3.2.3.2.5h.7c.1-.1.1-.3.2-.5l.3-.2c.4,0,.6.4.6,1.3v.9h.7v-4H219a16.6,16.6,0,0,0-3,1.5l.2.8a3.2,3.2,0,0,1,1.6.6,2.9,2.9,0,0,1,1.3,1.1h.6v-4h1.4l-.7,1a2.7,2.7,0,0,0-.3,1.2,2.4,2.4,0,0,0,.7,1.8,1.6,1.6,0,0,0,1.1.3l.6-.2v-.8l-.5.3a1.1,1.1,0,0,1-1-.4,2.3,2.3,0,0,1,.3-2.4l.6-.5v1.9l.5.5a6.9,6.9,0,0,1,1.8-1.2,7.8,7.8,0,0,0-.2,1.4,3,3,0,0,0,.4,1.3l.5-.3a7.4,7.4,0,0,1-.2-1.2,4.1,4.1,0,0,1,.4-1.5l-.6-.8-1.9,1.1V45.4h5.7a20.9,20.9,0,0,0-3,1.5l.2.8a2.9,2.9,0,0,1,1.6.6,2.5,2.5,0,0,1,1.3,1.1h.6v-4h.5v-.7H225Zm-23.7,3.6a5.2,5.2,0,0,0-1.9-1.2l1.9-.8Zm5.5.3a2.3,2.3,0,0,1,.3-2.4l.6-.6V49A1,1,0,0,1,206.8,48.6Zm2.6-1.5h.7a1.4,1.4,0,0,1-.5,1,2.8,2.8,0,0,1-1.2.4V46.7A1.6,1.6,0,0,0,209.4,47.1Zm9.6,1.2a7.1,7.1,0,0,0-1.8-1.2l1.8-.8Zm9.3,0a5.7,5.7,0,0,0-1.8-1.2l1.8-.8Z" transform="translate(14.9 59.3)"/><path class="cls-22" d="M241,44.7H231v.7h3.5a6.4,6.4,0,0,0-1.6.7l-1.5.8v.8a4.1,4.1,0,0,1,1.7.5,3.1,3.1,0,0,1,1.3,1.2h.7v-4h.7v4h.7v-4h.7a1.7,1.7,0,0,1,1,1.6.8.8,0,0,1-.2.6c-.1.3-.3.5-.4.5s-.4-.1-.7-.4v.8l.7.3c.4,0,.6-.2.9-.5a3.6,3.6,0,0,1,.4-.9c.2-.4.4-.6.5-.6l.3.2a.4.4,0,0,1,.1.3v2h.7V45.4h.8v4h.7v-4h.5v-.7Zm-6.5,3.6a7.6,7.6,0,0,0-1.9-1.2,8.7,8.7,0,0,1,1.9-.8Zm5.4-2-.4-.2a.9.9,0,0,0-.6.3,1.9,1.9,0,0,0-.5-1h1.5Z" transform="translate(14.9 59.3)"/></g></g></svg>